<svg xmlns="http://www.w3.org/2000/svg" xmlns:xlink="http://www.w3.org/1999/xlink" viewBox="0 0 500 500"><defs><clipPath id="freepik--clip-path--inject-10"><path d="M385.42,248.27h-9.91c-4.4,0-44.33,15-44.33,15a41.53,41.53,0,0,1,5.51-9.66,48,48,0,0,1,19.55-14.21c10.46-4.29,17.35-2.68,17.35-2.68C380.19,237.27,385.42,248.27,385.42,248.27Z" style="fill:#4240DD;stroke:#263238;stroke-linecap:round;stroke-linejoin:round"></path></clipPath><clipPath id="freepik--clip-path-2--inject-10"><path d="M291.64,324.88c7.21-17,14.6-39.51,15.54-43.39,2.31-9.54,10.53-12.17,19.73-16.12s29.9-16.1,44-19.06,29.38,1.06,44.37,12.2c5.45,4.05,13.86,18.33,14.84,30.49s-1.44,48.36-6.2,81.57c-2.55,17.81-.84,42.05-6.09,49s-25.56,11.85-45.94,10.87-29.25-5.92-38.12-11.51-16.44-12.17-16.44-15.45,5.25-10.85,7.23-16.11S331.18,343,331.18,343l-9.33,10.74C297.07,350.27,291.64,324.88,291.64,324.88Z" style="fill:#4240DD;stroke:#263238;stroke-linecap:round;stroke-linejoin:round"></path></clipPath><clipPath id="freepik--clip-path-3--inject-10"><path d="M55.94,173.69s-2.93,3.73-2.77,7.44h0a34.73,34.73,0,0,1-3.69-1.29,25.5,25.5,0,0,1-9.41-6.59h0a37,37,0,0,0,5.64-14.55C47.2,149.84,55.94,173.69,55.94,173.69Z" style="fill:#fff;stroke:#263238;stroke-linecap:round;stroke-linejoin:round;stroke-width:0.75px"></path></clipPath><clipPath id="freepik--clip-path-4--inject-10"><path d="M376.16,133.19c4.19-.31,6.07-.61,7.91-1.49l-1.68-8.58-13.36.79-.51,8.4A20.92,20.92,0,0,0,376.16,133.19Z" style="fill:#fff;stroke:#263238;stroke-linecap:round;stroke-linejoin:round;stroke-width:0.75px"></path></clipPath></defs><g id="freepik--background-simple--inject-10"><path d="M329.72,53.28S254.29,26.45,180.24,69.16,68.82,196.64,36.74,264.55,23.12,401.53,79.65,433s95-14.93,174.26-17.19,100.63,9.07,166.43-35.73S498,229.52,446.13,151.24,329.72,53.28,329.72,53.28Z" style="fill:#4240DD"></path><g style="opacity:0.7000000000000001"><path d="M329.72,53.28S254.29,26.45,180.24,69.16,68.82,196.64,36.74,264.55,23.12,401.53,79.65,433s95-14.93,174.26-17.19,100.63,9.07,166.43-35.73S498,229.52,446.13,151.24,329.72,53.28,329.72,53.28Z" style="fill:#fff"></path></g></g><g id="freepik--Plants--inject-10"><path d="M438.16,187.38c-.89,6.45-6.25,14.74-12.57,12.44a12,12,0,0,1-2.83-1.59c1.86-4.52.41-10.41,3.77-13.88,1.83-1.92,6.09-5.28,8.66-5C438.63,179.72,438.61,183.82,438.16,187.38Z" style="fill:#4240DD"></path><path d="M425.86,205.34c-3.37,4.13-7.29,7.08-14.2,5.07a9,9,0,0,1-4-2.51,5.47,5.47,0,0,1-1.53-4.29,5.11,5.11,0,0,1,4-4.07,14.24,14.24,0,0,1,6.09.06,20.37,20.37,0,0,1,6.12,2.28A14.56,14.56,0,0,1,425.86,205.34Z" style="fill:#4240DD"></path><path d="M422.41,198.43c3,5.27,6.06,10.47,8.84,15.79" style="fill:none;stroke:#4240DD;stroke-linecap:round;stroke-linejoin:round"></path><path d="M454.76,219a17.25,17.25,0,0,1-5.25,9.36c-2.59,2.28-5.74,3.23-8.67,1.65a14.58,14.58,0,0,1-2.58-1.93c1.19-2.1,1.58-4.7,2-7.2s1-4.88,2.7-6.63c1.88-1.9,6.09-5.42,8.79-4.79C455.37,210.3,455.53,215.17,454.76,219Z" style="fill:#4240DD"></path><path d="M440.27,235.45a16.27,16.27,0,0,1-6.53,3.78,13,13,0,0,1-8.29-.9,8.11,8.11,0,0,1-3.42-2.65,4.14,4.14,0,0,1-.8-3.84,5.74,5.74,0,0,1,4.45-3.53,13.21,13.21,0,0,1,5.92.43,16.07,16.07,0,0,1,5.72,2.84A14,14,0,0,1,440.27,235.45Z" style="fill:#4240DD"></path><path d="M431.25,214.22c2.65,4.92,4.94,10,7.13,15.13s4,10.4,5.54,15.76" style="fill:none;stroke:#4240DD;stroke-linecap:round;stroke-linejoin:round"></path><path d="M466.09,254.18c-2.7,6.51-10.47,12.43-15.74,8.24a12.67,12.67,0,0,1-2.19-2.38,13.5,13.5,0,0,0,1.95-3.16c.51-1.14.94-2.34,1.39-3.52.92-2.35,1.95-4.6,4-6,2.22-1.49,7-4.11,9.55-3C468.34,245.9,467.52,250.67,466.09,254.18Z" style="fill:#4240DD"></path><path d="M448.84,267.71c-4.6,2.8-9.23,4.13-15.08.21-2.52-1.64-4.36-4.79-3-7.38a5.56,5.56,0,0,1,5-2.64,13.41,13.41,0,0,1,5.79,1.56,17.47,17.47,0,0,1,5.07,3.89A12.92,12.92,0,0,1,448.84,267.71Z" style="fill:#4240DD"></path><path d="M443.92,245.11a227.55,227.55,0,0,1,7,32.76" style="fill:none;stroke:#4240DD;stroke-linecap:round;stroke-linejoin:round"></path><path d="M471.53,290.74a16.29,16.29,0,0,1-8.37,7c-3.27,1.14-6.53.77-8.65-1.8a14.75,14.75,0,0,1-1.68-2.76c1.93-1.5,3.21-3.78,4.46-6.05s2.5-4.29,4.69-5.39c2.38-1.16,7.51-3,9.86-1.62,1.56,1,2,2.47,1.8,4.35A15,15,0,0,1,471.53,290.74Z" style="fill:#4240DD"></path><path d="M451.85,300.75c-5.1,1.67-9.9,1.68-14.74-3.07-2-2-3.28-5-1.49-6.94a6.65,6.65,0,0,1,5.4-1.55,12.13,12.13,0,0,1,5.39,2.24,14.92,14.92,0,0,1,4.24,4.63A12.7,12.7,0,0,1,451.85,300.75Z" style="fill:#4240DD"></path><path d="M450.92,277.87,452,286.2a72.27,72.27,0,0,1,.45,8.22,121.09,121.09,0,0,1-1.1,16.58" style="fill:none;stroke:#4240DD;stroke-linecap:round;stroke-linejoin:round"></path><path d="M467.38,329.06a16.87,16.87,0,0,1-10,4.38c-3.48.2-6.47-1.06-7.83-4.12a14.71,14.71,0,0,1-.85-3.12c4.56-1.8,7.37-7.42,12.13-8.28,2.63-.43,8.11-.86,9.91,1.32C473.21,322.15,470.3,326.39,467.38,329.06Z" style="fill:#4240DD"></path><path d="M445.72,333.19a16.17,16.17,0,0,1-7.42-1.29,13.61,13.61,0,0,1-5.9-5.72c-1.45-2.44-1.79-5.68.52-7.25a6,6,0,0,1,5.65-.07,13.3,13.3,0,0,1,4.5,3.86,15.66,15.66,0,0,1,2.78,5.65A12.39,12.39,0,0,1,445.72,333.19Z" style="fill:#4240DD"></path><path d="M451.35,311a105.94,105.94,0,0,1-9.1,31.77" style="fill:none;stroke:#4240DD;stroke-linecap:round;stroke-linejoin:round"></path><path d="M450.68,365.73a17,17,0,0,1-5.74,1.24,14.5,14.5,0,0,1-5.49-.83c-3.24-1.21-5.4-3.71-5.36-7a18.9,18.9,0,0,1,.46-3.18c2.45.08,4.86-.95,7.27-1.91s4.73-1.91,7.13-1.54c2.63.45,8,1.76,8.91,4.54C459.13,360.76,454.56,364.14,450.68,365.73Z" style="fill:#4240DD"></path><path d="M429,360.91A14.63,14.63,0,0,1,419.89,349c-.47-2.66.17-5.27,2.71-5.65a6.71,6.71,0,0,1,5.2,2.15,12.68,12.68,0,0,1,2.85,5.09,13.66,13.66,0,0,1,.42,6.13A10.61,10.61,0,0,1,429,360.91Z" style="fill:#4240DD"></path><path d="M442.25,342.77a72.18,72.18,0,0,1-8.75,13.86,56.47,56.47,0,0,1-12,10.95" style="fill:none;stroke:#4240DD;stroke-linecap:round;stroke-linejoin:round"></path><path d="M419.4,391.05a19.11,19.11,0,0,1-9.69-4.06c-2.64-2.22-4.07-5.16-3-8.31a12.72,12.72,0,0,1,1.56-2.85c4.53,1.81,10.42.21,13.93,3.55a36.85,36.85,0,0,1,3.54,3.88c1.17,1.53,1.89,3.28,1.6,4.69C427.11,391.35,423,391.43,419.4,391.05Z" style="fill:#4240DD"></path><path d="M401.25,378.93c-4.09-3.43-6.84-7.43-5.09-14.18.73-2.86,3.3-5.81,6.48-5.46a5.14,5.14,0,0,1,4.15,3.93,14.43,14.43,0,0,1,0,6.08,19.25,19.25,0,0,1-2.15,6.12A13.77,13.77,0,0,1,401.25,378.93Z" style="fill:#4240DD"></path><path d="M421.5,367.58c-1.1.81-2.31,1.42-3.46,2.14l-3.7,2.1-7.31,4.3c-2.42,1.42-4.84,2.83-7.29,4.15-1.22.66-2.45,1.3-3.69,1.91s-2.49,1.21-3.8,1.89" style="fill:none;stroke:#4240DD;stroke-linecap:round;stroke-linejoin:round"></path><path d="M391.91,406.84a26.65,26.65,0,0,1-4.63-1,24.43,24.43,0,0,1-4.73-2.1c-2.87-1.67-5.16-4.18-4.63-7.46a11.82,11.82,0,0,1,1.07-3.11c4.82,1.09,10.34-.81,13.92,2.54,2,1.75,5.34,5.95,5.38,8.42a2.57,2.57,0,0,1-.53,1.82,2.53,2.53,0,0,1-1.44.89A13.75,13.75,0,0,1,391.91,406.84Z" style="fill:#4240DD"></path><path d="M372.54,397.8c-2.48-1.09-4.73-2.23-6.32-4.16s-2.43-4.57-1.77-8.66c.54-3.43,3.6-7.56,7.24-7.83a4.57,4.57,0,0,1,4.72,3.36,16.18,16.18,0,0,1,.36,6.27,29,29,0,0,1-1.51,6.65A20.46,20.46,0,0,1,372.54,397.8Z" style="fill:#4240DD"></path><path d="M392.25,384.07a77.93,77.93,0,0,0-26.48,22.1l-2.15,3" style="fill:none;stroke:#4240DD;stroke-linecap:round;stroke-linejoin:round"></path><path d="M28.84,294a14.14,14.14,0,0,0,1.95,5.09,12.11,12.11,0,0,0,3.43,3.73c2.6,1.83,5.57,2.15,8,.39a12.38,12.38,0,0,0,2.15-2,16.17,16.17,0,0,1-2.16-6.52c-.39-2.33-.79-4.68-2.17-6.42-1.57-1.86-5-5.62-7.71-4.85-1.83.52-2.89,2.21-3.45,4.22A15.62,15.62,0,0,0,28.84,294Z" style="fill:#4240DD"></path><path d="M43.54,308A14.45,14.45,0,0,0,50,310.25a14.61,14.61,0,0,0,7.2-1.58c2.16-1.09,3.9-2.73,2.77-4.7a6.61,6.61,0,0,0-4.25-2.79,10.75,10.75,0,0,0-5.25.29,11.66,11.66,0,0,0-4.85,2.77A9.8,9.8,0,0,0,43.54,308Z" style="fill:#4240DD"></path><path d="M44.84,301.35a57.83,57.83,0,0,0-2.6,15.82" style="fill:none;stroke:#4240DD;stroke-linecap:round;stroke-linejoin:round"></path><path d="M26,332.35a14.64,14.64,0,0,0,8.81,4.86c3.15.4,5.94-.58,7.35-3.3a14.31,14.31,0,0,0,1-2.78c-4-1.94-6.1-7.38-10.28-8.78-2.33-.7-7.25-1.84-9.11.07C21.19,325,23.48,329.54,26,332.35Z" style="fill:#4240DD"></path><path d="M45.42,337.67a14.57,14.57,0,0,0,6.81-.74,12.69,12.69,0,0,0,5.69-4.86,7.06,7.06,0,0,0,1.3-3.42A3,3,0,0,0,58,325.8a5.86,5.86,0,0,0-5.12-.44,11.56,11.56,0,0,0-4.39,3,13.08,13.08,0,0,0-2.91,4.89A11,11,0,0,0,45.42,337.67Z" style="fill:#4240DD"></path><path d="M42.24,317.17a69.3,69.3,0,0,0,1.41,15A91.42,91.42,0,0,0,48,346.67" style="fill:none;stroke:#4240DD;stroke-linecap:round;stroke-linejoin:round"></path><path d="M37.77,366.08a15.6,15.6,0,0,0,9.64,1.71c3.11-.52,5.58-2.18,6.15-5.17a11.77,11.77,0,0,0,.11-3c-4.41-.69-8.1-5-12.52-4.76-2.41.19-7.34,1-8.47,3.34C31.2,361.36,34.65,364.42,37.77,366.08Z" style="fill:#4240DD"></path><path d="M57.78,365.37c4.81-.78,8.79-2.69,10.51-8.82.72-2.58.27-5.78-2.17-6.74a5.25,5.25,0,0,0-5,1.11A11.82,11.82,0,0,0,58,355.35,15.15,15.15,0,0,0,56.7,361,12.11,12.11,0,0,0,57.78,365.37Z" style="fill:#4240DD"></path><path d="M48,346.67a149.74,149.74,0,0,0,14.42,27" style="fill:none;stroke:#4240DD;stroke-linecap:round;stroke-linejoin:round"></path><path d="M55.08,393.88a17.89,17.89,0,0,0,9.37.31c3-.76,5.48-2.45,5.86-5.49a11,11,0,0,0-.14-3c-4.46-.32-8.67-3.91-13-2.78-2.34.63-7,2.45-7.73,4.81C48.48,390.91,52,392.89,55.08,393.88Z" style="fill:#4240DD"></path><path d="M74.67,391.33c4.77-.83,9.09-2.35,10.1-9.36.42-3-.77-6.75-3.5-7.66a4.68,4.68,0,0,0-4.94,1.62,12.83,12.83,0,0,0-2.4,5,18.51,18.51,0,0,0-.59,6A15,15,0,0,0,74.67,391.33Z" style="fill:#4240DD"></path><path d="M62.45,373.63c5.6,8.57,12,16.91,16.59,26.47" style="fill:none;stroke:#4240DD;stroke-linecap:round;stroke-linejoin:round"></path><path d="M66.56,416.47a28.72,28.72,0,0,0,8.26,2.82c3,.51,6,.3,7.66-2.32a9.49,9.49,0,0,0,1.06-2.82c-2-1-3.69-2.66-5.51-3.95s-3.68-2.26-5.85-2.06c-2.4.18-7.15,1.37-8.55,3.13C61.75,413.55,64.23,415.12,66.56,416.47Z" style="fill:#4240DD"></path><path d="M85.18,421.4c2.29.85,4.5,1.62,6.76,1.35s4.56-1.64,6.52-5.24c1.7-3,1.86-8.27-.66-10.68a4,4,0,0,0-5.3-.34,14.74,14.74,0,0,0-3.75,4.39A30.64,30.64,0,0,0,86,416.62,24.24,24.24,0,0,0,85.18,421.4Z" style="fill:#4240DD"></path><path d="M79,400.1a58.63,58.63,0,0,1,5.07,15.15c.6,3.38,3,9.06,5.25,22.78" style="fill:none;stroke:#4240DD;stroke-linecap:round;stroke-linejoin:round"></path></g><g id="freepik--Table--inject-10"><g id="freepik--freepik--Table--inject-2--inject-10"><polygon points="412.35 391.41 412.35 451.81 403.5 451.81 400.37 391.07 412.35 391.41" style="fill:#fff;stroke:#263238;stroke-linecap:round;stroke-linejoin:round"></polygon><polygon points="415.19 378.83 415.19 393.8 51.84 392.54 51.84 378.75 40.27 378.75 40.27 377.57 415.19 378.83" style="fill:#263238;stroke:#263238;stroke-linecap:round;stroke-linejoin:round"></polygon><rect x="51.84" y="377.57" width="85.15" height="14.97" style="fill:#fff;stroke:#263238;stroke-linecap:round;stroke-linejoin:round"></rect><rect x="40.26" y="373.49" width="385.59" height="5.26" style="fill:#fff;stroke:#263238;stroke-linecap:round;stroke-linejoin:round"></rect><rect x="40.27" y="373.49" width="84.37" height="5.26" style="fill:#fff;stroke:#263238;stroke-linecap:round;stroke-linejoin:round"></rect></g><polygon points="54.65 392.84 54.65 451.76 62.62 451.76 65.43 392.54 54.65 392.84" style="fill:#fff;stroke:#263238;stroke-linecap:round;stroke-linejoin:round"></polygon><polygon points="143.58 392.88 143.58 451.92 134.72 451.92 131.6 392.54 143.58 392.88" style="fill:#fff;stroke:#263238;stroke-linecap:round;stroke-linejoin:round"></polygon><polygon points="405.65 373.55 299.81 451.92 249.1 451.92 136.28 373.55 405.65 373.55" style="fill:#bfbfbf;stroke:#263238;stroke-linecap:round;stroke-linejoin:round"></polygon><polygon points="47.64 373.55 82.45 450.85 118.64 373.55 47.64 373.55" style="fill:#bfbfbf;stroke:#263238;stroke-linecap:round;stroke-linejoin:round"></polygon><path d="M318.89,304.71c-8.65,10.12-25.22,9.46-25.22,9.46,14.74-3.08,31-18.69,15-24.84s-24,24.84-24,24.84S272.79,280.31,260,292s15.63,22.87,15.63,22.87c-9,.66-24-8.58-24-8.58l-4,5.5c13.86,9.67,36.92,6.55,36.92,6.55,19.55,4.35,38.25-7.65,38.25-7.65Zm-54.24-8.57c5.06-3.08,13,13.63,13,13.63S259.6,299.22,264.65,296.14Zm26.83,13.63s6.2-17.81,14.2-14.51S291.48,309.77,291.48,309.77Z" style="fill:#fff;stroke:#263238;stroke-linecap:round;stroke-linejoin:round"></path><path d="M318.89,304.71c-8.65,10.12-25.22,9.46-25.22,9.46,14.74-3.08,31-18.69,15-24.84s-24,24.84-24,24.84S272.79,280.31,260,292s15.63,22.87,15.63,22.87c-9,.66-24-8.58-24-8.58l-4,5.5c13.86,9.67,36.92,6.55,36.92,6.55,19.55,4.35,38.25-7.65,38.25-7.65Zm-54.24-8.57c5.06-3.08,13,13.63,13,13.63S259.6,299.22,264.65,296.14Zm26.83,13.63s6.2-17.81,14.2-14.51S291.48,309.77,291.48,309.77Z" style="fill:#fff;stroke:#263238;stroke-linecap:round;stroke-linejoin:round;opacity:0.2"></path><path d="M266.31,295.76a7.36,7.36,0,0,0-5.15,2,5.55,5.55,0,0,0-1.3,3.72" style="fill:none;stroke:#263238;stroke-linecap:round;stroke-linejoin:round"></path><path d="M275.51,305.78c.75,1.61,2.77,5.94,4,7.27" style="fill:#fff;stroke:#263238;stroke-linecap:round;stroke-linejoin:round"></path><path d="M289.74,312.65c1.74-3.31,3.4-7.32,6-11.49" style="fill:none;stroke:#263238;stroke-linecap:round;stroke-linejoin:round"></path><path d="M275.38,314.55a30.05,30.05,0,0,0,4.09.87" style="fill:none;stroke:#263238;stroke-linecap:round;stroke-linejoin:round"></path><path d="M289.8,314.82c.9-.22,3-.44,3.87-.65" style="fill:none;stroke:#263238;stroke-linecap:round;stroke-linejoin:round"></path><rect x="246.39" y="318.3" width="76.5" height="54.69" style="fill:#4240DD;stroke:#263238;stroke-linecap:round;stroke-linejoin:round"></rect><polygon points="258.93 318.3 246.39 337.64 246.39 325.5 251.06 318.3 258.93 318.3" style="fill:#263238;stroke:#263238;stroke-linecap:round;stroke-linejoin:round"></polygon><polygon points="288.94 318.3 253.53 372.99 246.39 372.99 246.39 371.92 281.07 318.3 288.94 318.3" style="fill:#263238;stroke:#263238;stroke-linecap:round;stroke-linejoin:round"></polygon><polygon points="318.89 318.3 283.54 372.99 275.67 372.99 311.02 318.3 318.89 318.3" style="fill:#263238;stroke:#263238;stroke-linecap:round;stroke-linejoin:round"></polygon><polygon points="322.89 346.38 322.89 358.52 313.55 372.99 305.68 372.99 322.89 346.38" style="fill:#263238;stroke:#263238;stroke-linecap:round;stroke-linejoin:round"></polygon><ellipse cx="284.64" cy="313.8" rx="5.27" ry="4.03" style="fill:#fff;stroke:#263238;stroke-linecap:round;stroke-linejoin:round"></ellipse><path d="M277.83,304.73a20.08,20.08,0,0,1,2.78,6.08" style="fill:none;stroke:#263238;stroke-linecap:round;stroke-linejoin:round"></path><path d="M289.9,305.78c-.58,1.32-2,3.79-2.2,5.23" style="fill:none;stroke:#263238;stroke-linecap:round;stroke-linejoin:round"></path><path d="M269.76,308.55a79.9,79.9,0,0,0,9,4.71" style="fill:none;stroke:#263238;stroke-linecap:round;stroke-linejoin:round"></path><rect x="171.83" y="303.39" width="5.6" height="23.79" style="fill:#fff;stroke:#263238;stroke-linecap:round;stroke-linejoin:round"></rect><path d="M176,291.05s6.24,11.13-1.31,11.91c-3.28.33-6.89-3.3-2.36-6.7A13.94,13.94,0,0,0,176,291.05Z" style="fill:#fff;stroke:#263238;stroke-linecap:round;stroke-linejoin:round"></path><rect x="137.28" y="324.83" width="75.41" height="34.91" style="fill:#fff;stroke:#263238;stroke-linecap:round;stroke-linejoin:round"></rect><path d="M134.7,324.75V339.7c0,1.13,2.3,1.82,4.08,1.22l9.2-3.08a4.65,4.65,0,0,1,3,0l4.49,1.7a22.6,22.6,0,0,0,14.49.15l5.31-1.86a4.63,4.63,0,0,1,3,.05l3.05,1.19a22.22,22.22,0,0,0,15.82-.23l2-.89a4.6,4.6,0,0,1,3.11-.11l8.92,3c1.77.6,4.09-.09,4.09-1.22V324.75c0-.79-1.2-1.44-2.67-1.44H137.37C135.89,323.31,134.7,324,134.7,324.75Z" style="fill:#4240DD;stroke:#263238;stroke-linecap:round;stroke-linejoin:round"></path><polygon points="221.24 367.72 128.74 367.72 119.04 359.74 230.94 359.74 221.24 367.72" style="fill:#263238;stroke:#263238;stroke-linecap:round;stroke-linejoin:round"></polygon><rect x="137.28" y="367.72" width="75.41" height="4.96" style="fill:#263238;stroke:#263238;stroke-linecap:round;stroke-linejoin:round"></rect><path d="M175.68,296.06s2.39,5.32-1.51,6.41C174.17,302.47,170.76,301,175.68,296.06Z" style="fill:#263238;stroke:#263238;stroke-linecap:round;stroke-linejoin:round"></path><ellipse cx="141.46" cy="320.49" rx="4.18" ry="3.19" style="fill:#bfbfbf;stroke:#263238;stroke-linecap:round;stroke-linejoin:round"></ellipse><ellipse cx="149.82" cy="320.49" rx="4.18" ry="3.19" style="fill:#bfbfbf;stroke:#263238;stroke-linecap:round;stroke-linejoin:round"></ellipse><ellipse cx="158.18" cy="320.49" rx="4.18" ry="3.19" style="fill:#bfbfbf;stroke:#263238;stroke-linecap:round;stroke-linejoin:round"></ellipse><ellipse cx="166.54" cy="320.49" rx="4.18" ry="3.19" style="fill:#bfbfbf;stroke:#263238;stroke-linecap:round;stroke-linejoin:round"></ellipse><ellipse cx="174.9" cy="320.49" rx="4.18" ry="3.19" style="fill:#bfbfbf;stroke:#263238;stroke-linecap:round;stroke-linejoin:round"></ellipse><ellipse cx="183.26" cy="320.49" rx="4.18" ry="3.19" style="fill:#bfbfbf;stroke:#263238;stroke-linecap:round;stroke-linejoin:round"></ellipse><ellipse cx="191.62" cy="320.49" rx="4.18" ry="3.19" style="fill:#bfbfbf;stroke:#263238;stroke-linecap:round;stroke-linejoin:round"></ellipse><ellipse cx="199.98" cy="320.49" rx="4.18" ry="3.19" style="fill:#bfbfbf;stroke:#263238;stroke-linecap:round;stroke-linejoin:round"></ellipse><path d="M212.52,320.49c0,1.76-1.88,3.19-4.18,3.19s-4.18-1.43-4.18-3.19,1.87-3.19,4.18-3.19S212.52,318.73,212.52,320.49Z" style="fill:#bfbfbf;stroke:#263238;stroke-linecap:round;stroke-linejoin:round"></path><path d="M148.51,343a21.55,21.55,0,0,0-2.87,8.56.83.83,0,0,0,1.38.64l5.4-4.9a.63.63,0,0,1,1.05.5l-.32,4.67,1.75-1.56a4.43,4.43,0,0,0,.09,2.92,1.76,1.76,0,0,0,.86.82c.91.38,1.62-.2,2.21-.78a20.25,20.25,0,0,0,3.21-4.1" style="fill:none;stroke:#263238;stroke-linecap:round;stroke-linejoin:round"></path><path d="M206.57,343.41a29.89,29.89,0,0,1-4.73,8.56c-.6.73-1.73,1.13-1.8.64l-.71-4.91c-.06-.38-.94-.05-1.39.51l-3.7,4.67-.26-1.56a11.25,11.25,0,0,1-2.59,2.92,5.63,5.63,0,0,1-1.48.82c-1.16.38-1.31-.2-1.35-.78a11.38,11.38,0,0,1,.59-4.1" style="fill:none;stroke:#263238;stroke-linecap:round;stroke-linejoin:round"></path><path d="M162.53,347.83a11.53,11.53,0,0,0,1.56-1.49,1.83,1.83,0,0,1,2.33-.46,1.73,1.73,0,0,1,.61.95c.31,1.17-.28,2.23-.31,3.35a2,2,0,0,0,.68,1.67,2,2,0,0,0,2.2-.13c.92-.58,1.53-1.54,2.39-2.2s2.27-.89,2.93,0c.23.3.32.67.53,1a2.17,2.17,0,0,0,2.69.48,6.39,6.39,0,0,0,2.12-2.05,1.39,1.39,0,0,0,.6,2,2.4,2.4,0,0,0,2.3-.36,10.31,10.31,0,0,0,1.71-1.72,14.54,14.54,0,0,1,3-2.53,1.2,1.2,0,0,1,1.84.87h0v-.37" style="fill:none;stroke:#263238;stroke-linecap:round;stroke-linejoin:round"></path><path d="M198.68,332.23c3.22-1.51,6.67-2.83,10-1.84" style="fill:none;stroke:#263238;stroke-linecap:round;stroke-linejoin:round"></path><path d="M160.81,330.87c.9-.19,1.79-.46,2.67-.73a39.11,39.11,0,0,1,8.56-2.05,12.56,12.56,0,0,1,8.41,2c1.79,1.29,3.11,3.22,5.05,4.28,2.82,1.52,6.15.88,9.22-.32" style="fill:none;stroke:#263238;stroke-linecap:round;stroke-linejoin:round"></path><path d="M157.62,331.08a5.82,5.82,0,0,0,1.32.05" style="fill:none;stroke:#263238;stroke-linecap:round;stroke-linejoin:round"></path><path d="M141.38,334c3.39-2.58,7.43-5.32,11.59-4.33,1,.24,2,.7,3,1" style="fill:none;stroke:#263238;stroke-linecap:round;stroke-linejoin:round"></path></g><g id="freepik--Graphics--inject-10"><line x1="240.54" y1="246.12" x2="247.61" y2="224.91" style="fill:none;stroke:#263238;stroke-linecap:round;stroke-linejoin:round"></line><line x1="275.1" y1="279.92" x2="256.26" y2="273.63" style="fill:none;stroke:#263238;stroke-linecap:round;stroke-linejoin:round"></line><line x1="276.45" y1="257.45" x2="255.75" y2="261.68" style="fill:none;stroke:#263238;stroke-linecap:round;stroke-linejoin:round"></line><line x1="266.39" y1="237.31" x2="249.91" y2="251.92" style="fill:none;stroke:#263238;stroke-linecap:round;stroke-linejoin:round"></line><line x1="202.13" y1="246.56" x2="209.97" y2="249.42" style="fill:none;stroke:#263238;stroke-linecap:round;stroke-linejoin:round;stroke-dasharray:1.9842400550842285,1.9842400550842285"></line><line x1="231.53" y1="149.37" x2="231.53" y2="244.11" style="fill:none;stroke:#263238;stroke-linecap:round;stroke-linejoin:round;stroke-dasharray:1.9842400550842285,1.9842400550842285"></line><line x1="205.69" y1="197.85" x2="221.63" y2="244.11" style="fill:none;stroke:#263238;stroke-linecap:round;stroke-linejoin:round;stroke-dasharray:1.9842400550842285,1.9842400550842285"></line></g><g id="freepik--Character--inject-10"><g id="freepik--freepik--Character--inject-2--inject-10"><path d="M311.7,167.07c14-3.47,38.22-5.63,44.78-1.41s13,29.9,13,31.3-1.28,21,.36,29.63c.9,5,4.52,9.46,6.42,14.14,0,0-4.44-.47-16.14,3.27s-21.88,14.23-21.88,14.23l-6-13.69s-8.21,3.34-15.63,2.55l-1.35-2.55-7.77-23.2a13.71,13.71,0,0,1-5.15-3.51c-2.81-2.81,3.05-11.23,3.27-12.87s-2.34-3.05-2.81-5.39a16.28,16.28,0,0,1-.14-3.22,64.29,64.29,0,0,0-.36-9.41C301.54,180.72,301.69,169.54,311.7,167.07Z" style="fill:#fff;stroke:#263238;stroke-linecap:round;stroke-linejoin:round"></path><path d="M305.29,196.83c.74-1.4,3.51,0,4.68,0s.48-1.63-2.57-2.57-3.75,1.64-3.75,1.64C303.89,197.53,304.55,198.23,305.29,196.83Z" style="fill:#263238;stroke:#263238;stroke-linecap:round;stroke-linejoin:round"></path><path d="M307.61,221.38s-.94-2.81-1.87-6.08a7.82,7.82,0,0,1,.59-5.81" style="fill:none;stroke:#263238;stroke-linecap:round;stroke-linejoin:round"></path><path d="M257.64,294.62H240.86a6.11,6.11,0,0,1-4.63-2.94l-11.43-19.8-6-10.41-4.63-8.1c-.94-1.63-1.87-3.66.79-3.64h17.93c.22,0,.44.06.67.07a3.69,3.69,0,0,1,3.06,1.63,20.83,20.83,0,0,1,1.51,2.31l21.22,37C260.27,292.32,259.27,294.62,257.64,294.62Z" style="fill:#263238;stroke:#263238;stroke-miterlimit:10"></path><path d="M256.88,291.86H242.25a5.92,5.92,0,0,1-4.51-2.86l-20.6-35.67c-1.82-2.73-.37-2.86,1.21-2.86H233c2.48,0,3.28.85,4.51,2.86L258.09,289C259,290.58,258.46,291.86,256.88,291.86Z" style="fill:#4240DD"></path><path d="M231.09,252.85H224a4.47,4.47,0,0,1-3.38-2.14l-.19-.33h11.4l.19.33C232.68,251.89,232.28,252.85,231.09,252.85Z" style="fill:#263238"></path><path d="M223.58,251.52c.18.31.08.55-.23.55a1.14,1.14,0,0,1-.87-.55c-.17-.3-.07-.55.23-.55A1.14,1.14,0,0,1,223.58,251.52Z" style="fill:#fff"></path><path d="M228.7,252.18h-3.09a1,1,0,0,1-.76-.47l-.08-.15c-.15-.27-.06-.48.2-.48h3.09a1,1,0,0,1,.75.48l.09.15C229.05,252,229,252.18,228.7,252.18Z" style="fill:#fff"></path><polygon points="229.69 249.73 224.81 271.88 224.74 272.18 218.72 261.75 218.79 261.47 221.76 249.73 229.69 249.73" style="fill:#fff;opacity:0.2"></polygon><polygon points="250.39 274.77 252.99 279.28 250.68 288.9 250.4 290.11 246.49 290.11 246.8 288.9 250.39 274.77" style="fill:#fff;opacity:0.2"></polygon><path d="M328.16,337.36c-3.11,12.76-22,34.62-29.9,43.88l0,0c-1.83,2.14-3.07,3.53-3.4,3.9l-.08.1h0c-1.49,1.4-3,2.38-4.39,2.46-5.36.3-22.93-10-31-33.84-5.06-15-14-43.8-14-43.8s-8.5-2.31-11.9-3.93a15,15,0,0,1-7.12-7.43c-.87-2.51-1.07-10-1.07-10-4.61-4.77-2.1-8-3.49-12.33-.93-2.86,3.2-4.81,3.2-4.81l3.85,6.7,9.42,6.56s-1.86-2.89-3.17-4.71-3.4-7.07-1.65-9.87,4.49-.13,6.07,2.84,8.64,12.82,11.17,14.65,4.8,9.15,7.49,17,28,44.12,28,44.12l17.39-38.15S332.11,321.14,328.16,337.36Z" style="fill:#fff;stroke:#263238;stroke-linecap:round;stroke-linejoin:round"></path><path d="M298.24,381.27a30.37,30.37,0,0,1-3.4,3.9C295.17,384.8,296.41,383.41,298.24,381.27Z" style="fill:#fff;stroke:#263238;stroke-linecap:round;stroke-linejoin:round"></path><line x1="225.31" y1="276.95" x2="230.75" y2="279.64" style="fill:none;stroke:#263238;stroke-linecap:round;stroke-linejoin:round"></line><path d="M385.42,248.27h-9.91c-4.4,0-44.33,15-44.33,15a41.53,41.53,0,0,1,5.51-9.66,48,48,0,0,1,19.55-14.21c10.46-4.29,17.35-2.68,17.35-2.68C380.19,237.27,385.42,248.27,385.42,248.27Z" style="fill:#4240DD"></path><g style="clip-path:url(#freepik--clip-path--inject-10)"><path d="M346.25,249.53c-.62,1.38-1,3.08-.14,4.3a3.41,3.41,0,0,0,3.26,1.11,10.83,10.83,0,0,0,3.33-1.36,72.44,72.44,0,0,1,29.54-8.33c-2.24-5.34-8.65-7.91-14.41-7.49C360.28,238.31,349.48,242.3,346.25,249.53Z" style="opacity:0.2"></path></g><path d="M385.42,248.27h-9.91c-4.4,0-44.33,15-44.33,15a41.53,41.53,0,0,1,5.51-9.66,48,48,0,0,1,19.55-14.21c10.46-4.29,17.35-2.68,17.35-2.68C380.19,237.27,385.42,248.27,385.42,248.27Z" style="fill:none;stroke:#263238;stroke-linecap:round;stroke-linejoin:round"></path><path d="M425.37,451.85,421.1,408.7H318.33c-3.84,0-4.9,8.54-4.9,8.54s-66.69-5.74-113.89,11.35c-9.19,3.32-15.3,13.07-15.3,22.84h0Z" style="fill:#263238;stroke:#263238;stroke-linecap:round;stroke-linejoin:round"></path><path d="M291.64,324.88c7.21-17,14.6-39.51,15.54-43.39,2.31-9.54,10.53-12.17,19.73-16.12s29.9-16.1,44-19.06,29.38,1.06,44.37,12.2c5.45,4.05,13.86,18.33,14.84,30.49s-1.44,48.36-6.2,81.57c-2.55,17.81-.84,42.05-6.09,49s-25.56,11.85-45.94,10.87-29.25-5.92-38.12-11.51-16.44-12.17-16.44-15.45,5.25-10.85,7.23-16.11S331.18,343,331.18,343l-9.33,10.74C297.07,350.27,291.64,324.88,291.64,324.88Z" style="fill:#4240DD"></path><g style="clip-path:url(#freepik--clip-path-2--inject-10)"><path d="M319.59,273.72c-2.73,1-4.09,4.21-4,7.12s1.37,5.62,2.41,8.34a59.59,59.59,0,0,1,3.42,13.74c.33,2.58.2,5.76-2.07,7-1.83,1-4.27.17-5.67-1.4a14,14,0,0,1-2.6-5.7l4.47,27.27c-2.44.69-5.08-.63-6.68-2.59a19.54,19.54,0,0,1-3.14-6.85q.21,9.53.43,19a5.3,5.3,0,0,1-.7,3.43c-.73.94-2.46,1.13-3,.06,3.21,4.3,7,9,12.31,9.67,6.42.87,11.91-4.31,16.32-9.07,7.78-8.42,15.95-17.63,17.41-29,1.11-8.62-2-17.47-7.3-24.34s-12.76-11.9-20.69-15.46Z" style="opacity:0.2"></path><path d="M381,254.22c-13.7-1.84-28.45,2.58-37.79,12.78-2,2.19-3.81,4.66-6.36,6.18s-6.18,1.79-8.24-.35c8.66,6,17,13.09,21.68,22.54s4.89,21.71-1.83,29.83c-1.67,2-3.71,3.72-5.32,5.79s-2.82,4.67-2.41,7.26,2.91,4.93,5.49,4.42l-4.24.77a3.85,3.85,0,0,1,3.78,4.08l-5.68-1.47,3.63,4.28-6.41.78,7.17,13.14L336.68,361a91.05,91.05,0,0,0,31,49.39,23.37,23.37,0,0,1-20.2-8.61c-.4,3.24,2.13,6,4,8.67s3.09,6.79.58,8.89c-1.54,1.3-3.81,1.16-5.79.78a34,34,0,0,1-14-6.25c10.39,11.41,26.85,14.78,42.23,16,7,.56,14.14.79,21-.61s13.62-4.58,18.21-9.92c5-5.83,7.07-13.69,7.52-21.37s-.54-15.35-.86-23c-1.23-29.78,7.65-59.59,4-89.17A109,109,0,0,1,407,332c3.67-5.49,5.15-14.37,6.52-20.73a117.78,117.78,0,0,0,2.6-22.39c.09-4.54,1-10.93-.86-15.24-2.19-5-8.56-8.85-13-11.59A54.46,54.46,0,0,0,381,254.22Z" style="opacity:0.2"></path></g><path d="M291.64,324.88c7.21-17,14.6-39.51,15.54-43.39,2.31-9.54,10.53-12.17,19.73-16.12s29.9-16.1,44-19.06,29.38,1.06,44.37,12.2c5.45,4.05,13.86,18.33,14.84,30.49s-1.44,48.36-6.2,81.57c-2.55,17.81-.84,42.05-6.09,49s-25.56,11.85-45.94,10.87-29.25-5.92-38.12-11.51-16.44-12.17-16.44-15.45,5.25-10.85,7.23-16.11S331.18,343,331.18,343l-9.33,10.74C297.07,350.27,291.64,324.88,291.64,324.88Z" style="fill:none;stroke:#263238;stroke-linecap:round;stroke-linejoin:round"></path><line x1="331.18" y1="342.95" x2="347.62" y2="323.23" style="fill:none;stroke:#263238;stroke-linecap:round;stroke-linejoin:round"></line><line x1="349.99" y1="320.38" x2="352.55" y2="317.31" style="fill:none;stroke:#263238;stroke-linecap:round;stroke-linejoin:round"></line></g><path d="M309.59,204.59c.16,1.19-.31,2.23-1,2.33s-1.45-.79-1.6-2,.31-2.23,1-2.33S309.43,203.4,309.59,204.59Z" style="fill:#263238"></path><path d="M310.49,227.9a14,14,0,0,0,8.63-6.23,17.38,17.38,0,0,1-.72,9.38,3,3,0,0,1-3.18,2.09,4.83,4.83,0,0,1-2.26-1.56,18.61,18.61,0,0,1-1.81-2.29Z" style="fill:#fff;stroke:#263238;stroke-linecap:round;stroke-linejoin:round"></path><path d="M375.49,201.58c-1.33,7-4.32,17.85-5.65,24.87-8.6,2-13.28,3.13-22,4.22-7.5.94-15.12-15.68-17.48-21.06-.54.24-2.65-10.31-6.19-13.76a23.74,23.74,0,0,1-3.05-3c-1.59-2.31-1.28-5.61-1.94-8.3a7,7,0,0,0-.47-1.42.3.3,0,0,0,0,.1l-.31.14a22.67,22.67,0,0,1-24.77-4.11,9.65,9.65,0,0,1-3.11-5.16c-.45-2.63.84-5.22,2.08-7.59,1.79-3.43,3.72-7,6.93-9.15,2.56-1.7,5.65-2.33,8.67-2.93,8.27-1.64,16.59-3.28,25-3.68,3.74-.18,8.05.15,10.31,3.12,1,1.29,1.71,3.13,3.32,3.37,1.21.17,2.3-.68,3.44-1.12,3.28-1.22,6.72,1.18,9.4,3.43,6.83,5.74,14,12,16.54,20.57C378.18,187.08,376.85,194.49,375.49,201.58Z" style="fill:#263238;stroke:#263238;stroke-linecap:round;stroke-linejoin:round"></path><path d="M331.79,219.4c4.45,1.18,7.95-5.16,7.72-10.29s-2.8-11-6.55-8.88-3,9.6-3,9.6" style="fill:#fff;stroke:#263238;stroke-linecap:round;stroke-linejoin:round"></path><path d="M319.15,184.59a.91.91,0,0,1-.48-.52l-.34-.66.31-.14a.3.3,0,0,1,0-.1A7,7,0,0,1,319.15,184.59Z" style="fill:#263238;stroke:#263238;stroke-linecap:round;stroke-linejoin:round"></path><path d="M332.1,222.78c2,3.8,1.44,8.59-.56,12.4s-5.26,6.82-8.59,9.56" style="fill:none;stroke:#263238;stroke-linecap:round;stroke-linejoin:round"></path><path d="M339.29,235.56a34.46,34.46,0,0,1-.4,15.69" style="fill:none;stroke:#263238;stroke-linecap:round;stroke-linejoin:round"></path><path d="M302.76,316a116.67,116.67,0,0,1,4.66-34.64" style="fill:none;stroke:#263238;stroke-linecap:round;stroke-linejoin:round"></path><path d="M345.5,291.23c1.85,2.77,3.54,5.66,5.22,8.52" style="fill:none;stroke:#263238;stroke-linecap:round;stroke-linejoin:round"></path><path d="M314.75,274.18c7.69-1.93,15.93,1.33,21.89,6.55a46.29,46.29,0,0,1,6.59,7.26" style="fill:none;stroke:#263238;stroke-linecap:round;stroke-linejoin:round"></path><path d="M310,299a133.07,133.07,0,0,0,6.88,34.47" style="fill:none;stroke:#263238;stroke-linecap:round;stroke-linejoin:round"></path><path d="M309.8,287.16q-.07,3.25,0,6.51" style="fill:none;stroke:#263238;stroke-linecap:round;stroke-linejoin:round"></path><path d="M342.25,314a155,155,0,0,1-14.77,25.82" style="fill:none;stroke:#263238;stroke-linecap:round;stroke-linejoin:round"></path><path d="M338.09,340.8,354.83,349a1.8,1.8,0,0,1,.9.72c.53,1.07-1.14,1.84-2.33,1.82A27.11,27.11,0,0,1,336.18,345" style="fill:none;stroke:#263238;stroke-linecap:round;stroke-linejoin:round"></path><path d="M333.71,349.82A102.89,102.89,0,0,0,346,364.76" style="fill:none;stroke:#263238;stroke-linecap:round;stroke-linejoin:round"></path><path d="M421.75,300.09a156,156,0,0,1-22.41,56.09" style="fill:none;stroke:#263238;stroke-linecap:round;stroke-linejoin:round"></path><path d="M423.61,287.16c-.21,2.07-.46,4.15-.75,6.21" style="fill:none;stroke:#263238;stroke-linecap:round;stroke-linejoin:round"></path><path d="M406.36,331.58a152.1,152.1,0,0,1-34.48,36.48l1.2-1.06" style="fill:none;stroke:#263238;stroke-linecap:round;stroke-linejoin:round"></path><path d="M429.44,318.71c-.88,14.69-6.5,34.56-14.25,47.07l.34-1.3" style="fill:none;stroke:#263238;stroke-linecap:round;stroke-linejoin:round"></path><path d="M287,346.84a23.33,23.33,0,0,0-.94,19" style="fill:none;stroke:#263238;stroke-linecap:round;stroke-linejoin:round"></path><path d="M235.26,271.16c-.36,1.24-1,2.92.28,3a2.27,2.27,0,0,1,2.09-1" style="fill:none;stroke:#263238;stroke-linecap:round;stroke-linejoin:round"></path><path d="M243.44,281.93c2.39,1.35,5.7,3.57,7.24,5.83" style="fill:none;stroke:#263238;stroke-linecap:round;stroke-linejoin:round"></path><path d="M222.14,277.8c1.87,2.87,4.3,7.18,7.46,8.51,1.93,3.8,4.16,3.8,4.16,3.8" style="fill:none;stroke:#263238;stroke-linecap:round;stroke-linejoin:round"></path><path d="M225.28,288.73c.37.93,1.78,3.89,3.56,3.89" style="fill:none;stroke:#263238;stroke-linecap:round;stroke-linejoin:round"></path><path d="M225.69,295.05a9.29,9.29,0,0,0,2.62,3.24" style="fill:none;stroke:#263238;stroke-linecap:round;stroke-linejoin:round"></path><path d="M440.9,329c5,0,9.36,2.09,9.66,4.7l4.37,38.15c.27,2.32-2.85,4.23-7,4.23H355c-4.12,0-7.21-1.91-6.9-4.23l5.16-38.15h0c.35-2.61,4.72-4.7,9.75-4.7Z" style="fill:#263238;stroke:#263238;stroke-linecap:round;stroke-linejoin:round"></path><path d="M448.79,329c5,0,9.41,2.09,9.76,4.7l5.15,38.15c.32,2.32-2.77,4.23-6.9,4.23h-93c-4.13,0-7.26-1.91-7-4.23l4.37-38.15h0c.3-2.61,4.63-4.7,9.66-4.7Z" style="fill:#636363;stroke:#263238;stroke-linecap:round;stroke-linejoin:round"></path><rect x="384.95" y="355.71" width="8.32" height="96.19" style="fill:#fff;stroke:#263238;stroke-linecap:round;stroke-linejoin:round"></rect><rect x="433.06" y="355.8" width="8.32" height="96.1" style="fill:#fff;stroke:#263238;stroke-linecap:round;stroke-linejoin:round"></rect><rect x="380.38" y="352.5" width="18.37" height="9.72" style="fill:#fff;stroke:#263238;stroke-linecap:round;stroke-linejoin:round"></rect><rect x="428.03" y="352.5" width="18.37" height="9.72" style="fill:#fff;stroke:#263238;stroke-linecap:round;stroke-linejoin:round"></rect><path d="M316.74,419.34a72.19,72.19,0,0,0,15.53,21.86" style="fill:none;stroke:#bfbfbf;stroke-linecap:round;stroke-linejoin:round"></path><path d="M194.67,440.52A12.57,12.57,0,0,0,200,450.86" style="fill:none;stroke:#bfbfbf;stroke-linecap:round;stroke-linejoin:round"></path><path d="M323.78,418.31a57,57,0,0,0,37.3,16.57" style="fill:none;stroke:#bfbfbf;stroke-linecap:round;stroke-linejoin:round"></path><path d="M401.84,434.71c.91,8.41.25,14.52-.82,16.5" style="fill:none;stroke:#bfbfbf;stroke-linecap:round;stroke-linejoin:round"></path><path d="M395.37,436.1c14.2-2.71,21.69-5.92,27.28-14.57" style="fill:none;stroke:#bfbfbf;stroke-linecap:round;stroke-linejoin:round"></path><path d="M357,162.37l.35.63a85.4,85.4,0,0,1,7.94,7.63c3.85,4.22,7.41,9.13,8,14.8a16.26,16.26,0,0,1-1.66,9.1" style="fill:none;stroke:#bfbfbf;stroke-linecap:round;stroke-linejoin:round"></path><path d="M341.63,188.22a11.59,11.59,0,0,0,9,12.3" style="fill:none;stroke:#bfbfbf;stroke-linecap:round;stroke-linejoin:round"></path><path d="M350.05,178.53a34.49,34.49,0,0,0,9.11,24.74" style="fill:none;stroke:#bfbfbf;stroke-linecap:round;stroke-linejoin:round"></path><path d="M365.39,186.37a38.33,38.33,0,0,1,.55,16.44" style="fill:none;stroke:#bfbfbf;stroke-linecap:round;stroke-linejoin:round"></path><path d="M312.37,176.34a17.57,17.57,0,0,0,13.43,9.45" style="fill:none;stroke:#bfbfbf;stroke-linecap:round;stroke-linejoin:round"></path><path d="M319.11,176.35a14.48,14.48,0,0,0,12.05,6.71" style="fill:none;stroke:#bfbfbf;stroke-linecap:round;stroke-linejoin:round"></path><path d="M325.66,174.15a10.84,10.84,0,0,0,8,5.7" style="fill:none;stroke:#bfbfbf;stroke-linecap:round;stroke-linejoin:round"></path><path d="M319.07,246.45a20.55,20.55,0,0,0,5.94-3.06l.16-.13h0a22.53,22.53,0,0,0,4.32-4.35l.06-.08c1.61-2.14,2.86-6.29,3.85-9.6l-1.31,15.09a31.25,31.25,0,0,1-15.21,2.85Z" style="fill:#263238;stroke:#263238;stroke-linecap:round;stroke-linejoin:round"></path></g><g id="freepik--Wish-1--inject-10"><path d="M178.93,207.82H51.38a10.55,10.55,0,0,0-10.55,10.55h0v33a10.57,10.57,0,0,0,10.55,10.56H164.44a34.25,34.25,0,0,0,19.76-6.28c2.07-1.47,4.15-2.94,6.31-4.28l9.9-6.09-10.91-5.91v-21A10.57,10.57,0,0,0,178.93,207.82Z" style="fill:#fff;stroke:#263238;stroke-linecap:round;stroke-linejoin:round"></path><line x1="86.71" y1="220.4" x2="111.48" y2="220.4" style="fill:none;stroke:#263238;stroke-linecap:round;stroke-linejoin:round;stroke-width:2px"></line><line x1="86.71" y1="231.12" x2="138.71" y2="231.12" style="fill:none;stroke:#263238;stroke-linecap:round;stroke-linejoin:round"></line><line x1="86.71" y1="239.98" x2="138.71" y2="239.98" style="fill:none;stroke:#263238;stroke-linecap:round;stroke-linejoin:round"></line><line x1="86.71" y1="249.78" x2="112.31" y2="249.78" style="fill:none;stroke:#263238;stroke-linecap:round;stroke-linejoin:round"></line><path d="M79.38,235.25A28.34,28.34,0,0,1,59,262.46q-1,.32-2.1.54a29.12,29.12,0,0,1-5.86.6,27.86,27.86,0,0,1-10.56-2.05c-.36-.13-.71-.28-1.06-.44a28.36,28.36,0,1,1,40-25.86Z" style="fill:#4240DD;stroke:#263238;stroke-linecap:round;stroke-linejoin:round"></path><path d="M59,262.46q-1,.32-2.1.54a29.12,29.12,0,0,1-5.86.6,27.86,27.86,0,0,1-10.56-2.05c-.1-.21-.2-.42-.29-.64a18.8,18.8,0,0,0,2.44-6.09A40.61,40.61,0,0,0,43,243.61L56.59,246A122.85,122.85,0,0,0,59,262.46Z" style="fill:#fff;stroke:#263238;stroke-linecap:round;stroke-linejoin:round;stroke-width:0.75px"></path><path d="M57.79,255h0a2.75,2.75,0,0,1-3.57,2.05A18.61,18.61,0,0,1,48.53,254c-5.33-4.32-5.33-12.31-5.33-12.31S54.49,250.57,57.79,255Z" style="fill:#263238;stroke:#263238;stroke-linecap:round;stroke-linejoin:round;stroke-width:0.75px"></path><path d="M46.58,249.52,34.82,230.64s-6.1-2.52-2.84-5.78c0,0-5.24-9.07,1.56-9.07,0,0,.88-7.37,7.46-4.39,0,0,5.72-6.81,9.55-1.85,0,0,7.86-3.82,9.88,1,0,0,5.74,0,5.51,4.26,0,0,3.61,4.82-1.14,5.38,0,0,1.26,3.83-4.37,3.83s-12.57,6.88-12.57,6.88L46.44,238Z" style="fill:#263238;stroke:#263238;stroke-linecap:round;stroke-linejoin:round;stroke-width:0.75px"></path><path d="M63.71,222l2.2,6.83a5,5,0,0,1,.18,2.23l-.29,2,1.11,4.5a4.39,4.39,0,0,1,.12.71c.24,2.37,1.16,15-5.51,16.6-5.91,1.44-13.09-5-15.69-7.56a7.31,7.31,0,0,1-1.53-2.24l-1.49-3.4a4.1,4.1,0,0,1-4.28-2.19c-1.38-2.72-3.19-4.32-.52-6.23s4.36,2,4.36,2-.08-4.87.55-6.33c.56-1.28,2.84-3.17,3.4-4.45a17.13,17.13,0,0,0,.56-3s9.12.25,15.6-2.23Z" style="fill:#fff;stroke:#263238;stroke-linecap:round;stroke-linejoin:round;stroke-width:0.75px"></path><path d="M63.71,222l2.2,6.83a5,5,0,0,1,.18,2.23l-.29,2,1.11,4.5a4.39,4.39,0,0,1,.12.71c.24,2.37,1.16,15-5.51,16.6-5.91,1.44-13.09-5-15.69-7.56a7.31,7.31,0,0,1-1.53-2.24l-1.49-3.4a4.1,4.1,0,0,1-4.28-2.19c-1.38-2.72-3.19-4.32-.52-6.23s4.36,2,4.36,2-.08-4.87.55-6.33c.56-1.28,2.84-3.17,3.4-4.45a17.13,17.13,0,0,0,.56-3s9.12.25,15.6-2.23Z" style="fill:#fff;stroke:#263238;stroke-linecap:round;stroke-linejoin:round;stroke-width:0.75px"></path><path d="M59.46,234.44l3.34,5.39a1.31,1.31,0,0,1-.81,2l-3,.69" style="fill:none;stroke:#263238;stroke-linecap:round;stroke-linejoin:round;stroke-width:0.75px"></path><path d="M60.34,248.67c-2.7,3.59-5.18-4.19-5.18-4.19,2.05,1.63,4.64,1.85,5.91.71A6.25,6.25,0,0,1,60.34,248.67Z" style="fill:none;stroke:#263238;stroke-linecap:round;stroke-linejoin:round;stroke-width:0.75px"></path><path d="M55,236.3c.13.8.54,1.39.92,1.33s.59-.76.45-1.55-.54-1.39-.92-1.33S54.82,235.51,55,236.3Z" style="fill:#263238"></path><path d="M62.41,235.07c.13.8.54,1.39.92,1.33s.58-.76.45-1.55-.54-1.39-.92-1.33S62.28,234.28,62.41,235.07Z" style="fill:#263238"></path><path d="M65.53,230.25a2.38,2.38,0,0,0-3.42-1.45" style="fill:none;stroke:#263238;stroke-linecap:round;stroke-linejoin:round;stroke-width:0.75px"></path><path d="M56.55,229.39s-3.12.05-3.93,2.73" style="fill:none;stroke:#263238;stroke-linecap:round;stroke-linejoin:round;stroke-width:0.75px"></path><path d="M44.09,221.34s7.47,5.45,8.36,1.51c0,0,6.22,1.5,6.64-.6,0,0,6.22,2.49,6.89.56s-5-7.08-5-7.08L47.88,217.4Z" style="fill:#263238;stroke:#263238;stroke-linecap:round;stroke-linejoin:round;stroke-width:0.75px"></path><rect x="150.66" y="230.17" width="27.97" height="22.16" style="fill:#fff;stroke:#263238;stroke-linecap:round;stroke-linejoin:round"></rect><polygon points="155.24 230.17 150.66 238.01 150.66 233.09 152.37 230.17 155.24 230.17" style="fill:#263238"></polygon><polygon points="166.22 230.17 153.27 252.34 150.66 252.34 150.66 251.9 163.34 230.17 166.22 230.17" style="fill:#263238"></polygon><polygon points="177.17 230.17 164.24 252.34 161.36 252.34 174.29 230.17 177.17 230.17" style="fill:#263238"></polygon><polygon points="178.63 241.55 178.63 246.47 175.22 252.34 172.34 252.34 178.63 241.55" style="fill:#263238"></polygon><path d="M177.17,224.66c-3.17,4.1-9.22,3.84-9.22,3.84,5.38-1.25,11.33-7.58,5.47-10.07s-8.78,10.07-8.78,10.07-4.33-13.73-9-9,5.71,9.26,5.71,9.26c-3.28.27-8.77-3.47-8.77-3.47l-1.44,2.23c5.06,3.92,13.49,2.65,13.49,2.65,7.15,1.76,14-3.1,14-3.1Zm-19.83-3.47c1.84-1.25,4.74,5.52,4.74,5.52S155.49,222.44,157.34,221.19Zm9.8,5.52s2.27-7.21,5.2-5.88S167.14,226.71,167.14,226.71Z" style="fill:#263238"></path><ellipse cx="164.64" cy="228.35" rx="1.93" ry="1.63" style="fill:#fff;stroke:#263238;stroke-linecap:round;stroke-linejoin:round"></ellipse></g><g id="freepik--Wish-2--inject-10"><path d="M193.9,126.85H55.35A10.55,10.55,0,0,0,44.8,137.4h0v32.94a10.57,10.57,0,0,0,10.55,10.57H192l12.49,13.23V137.38A10.56,10.56,0,0,0,193.9,126.85Z" style="fill:#fff;stroke:#263238;stroke-linecap:round;stroke-linejoin:round"></path><line x1="96.68" y1="139.42" x2="127.45" y2="139.42" style="fill:none;stroke:#263238;stroke-linecap:round;stroke-linejoin:round;stroke-width:2px"></line><line x1="96.68" y1="150.15" x2="146.76" y2="150.15" style="fill:none;stroke:#263238;stroke-linecap:round;stroke-linejoin:round"></line><line x1="96.68" y1="159.01" x2="145.81" y2="159.01" style="fill:none;stroke:#263238;stroke-linecap:round;stroke-linejoin:round"></line><line x1="96.68" y1="168.81" x2="144.86" y2="168.81" style="fill:none;stroke:#263238;stroke-linecap:round;stroke-linejoin:round"></line><path d="M89.05,153.79a28.35,28.35,0,1,1-28.36-28.36A28.35,28.35,0,0,1,89.05,153.79Z" style="fill:#4240DD;stroke:#263238;stroke-linecap:round;stroke-linejoin:round"></path><path d="M76,155.08c-.37,10.86-8.29,23.07-12.95,24.45-4.39,1.32-14.71-6.32-15.89-7.21h0l-.07-.05,0,0h0l-.16,0a18.86,18.86,0,0,1-9.22-2,28.34,28.34,0,0,1-4.77-21.76,35.15,35.15,0,0,1,11.85-14.44c11.2-7.45,22.63,1.16,22.63,1.16C79.75,136.12,76.31,144.2,76,155.08Z" style="fill:#263238;stroke:#263238;stroke-linecap:round;stroke-linejoin:round;stroke-width:0.75px"></path><path d="M55.94,173.69s-2.93,3.73-2.77,7.44h0a34.73,34.73,0,0,1-3.69-1.29,25.5,25.5,0,0,1-9.41-6.59h0a37,37,0,0,0,5.64-14.55C47.2,149.84,55.94,173.69,55.94,173.69Z" style="fill:#fff"></path><g style="clip-path:url(#freepik--clip-path-3--inject-10)"><path d="M45.39,162.74c.23,4.51,1.44,6.41,5.2,10.23,4.33,4.42,7.17,7.89,13.49,0,4.2-5.23,5.5-8.57,5.9-10.23Z" style="fill:#263238;stroke:#263238;stroke-linecap:round;stroke-linejoin:round;stroke-width:0.75px"></path></g><path d="M55.94,173.69s-2.93,3.73-2.77,7.44h0a34.73,34.73,0,0,1-3.69-1.29,25.5,25.5,0,0,1-9.41-6.59h0a37,37,0,0,0,5.64-14.55C47.2,149.84,55.94,173.69,55.94,173.69Z" style="fill:none;stroke:#263238;stroke-linecap:round;stroke-linejoin:round;stroke-width:0.75px"></path><path d="M72.05,150.66l-1.51,9.05s.24,3.6-6.08,11.49-9.16,4.42-13.5,0-5.27-6.26-5.25-12.5c0,0-2.22-.31-3.59-4.39s3.63-5.63,4.89-3l7.54-3.66,4.64-5.6,2.67-3.55,5.46,2L73.1,144Z" style="fill:#fff;stroke:#263238;stroke-linecap:round;stroke-linejoin:round;stroke-width:0.75px"></path><path d="M65.36,160s-2.32,2.39-.38,4.7c2.64,3.13-2.9,2.16-2.91,3.1" style="fill:none;stroke:#263238;stroke-linecap:round;stroke-linejoin:round;stroke-width:0.75px"></path><path d="M55.66,166.14c0-.27,4.48,3.28,4.48,3.28h0a2.22,2.22,0,0,1-3.85-.07A5.92,5.92,0,0,1,55.66,166.14Z" style="fill:none;stroke:#263238;stroke-linecap:round;stroke-linejoin:round;stroke-width:0.75px"></path><path d="M61.72,158.9c-.34.78-.86,1.3-1.16,1.17s-.28-.86,0-1.64.85-1.3,1.16-1.17S62.05,158.13,61.72,158.9Z" style="fill:#263238"></path><path d="M68.6,161.6c-.3.69-.76,1.16-1,1s-.25-.77,0-1.47.76-1.17,1-1S68.9,160.9,68.6,161.6Z" style="fill:#263238"></path><path d="M63.89,153.71s-2-1.77-5,.06" style="fill:none;stroke:#263238;stroke-linecap:round;stroke-linejoin:round;stroke-width:0.75px"></path><path d="M68.58,155.38A2.24,2.24,0,0,1,70.11,157" style="fill:none;stroke:#263238;stroke-linecap:round;stroke-linejoin:round;stroke-width:0.75px"></path><path d="M47.43,147.61s-3.26,8.32,1.26,11.94c0,0,3.75-10.73,11.53-11.94s11-3.62,11-3.62-.93,10.59,1.18,13.2S74.45,145,74.45,145l-2.09-5.09-11.2-4.5-9.64,4.53Z" style="fill:#263238;stroke:#263238;stroke-linecap:round;stroke-linejoin:round;stroke-width:0.75px"></path><path d="M45.44,160.1s-2.68,11,.85,12-3.91-.66-8.37-2.72S43.82,159,43.82,159Z" style="fill:#263238;stroke:#263238;stroke-linecap:round;stroke-linejoin:round;stroke-width:0.75px"></path><polygon points="157.79 173.48 154.75 170.44 163.95 152.43 175.8 164.28 157.79 173.48" style="fill:#fff;stroke:#263238;stroke-linecap:round;stroke-linejoin:round"></polygon><path d="M175.74,164.2c-.77.76-4-1.24-7.23-4.47s-5.24-6.47-4.48-7.23,4,1.24,7.23,4.47S176.5,163.44,175.74,164.2Z" style="fill:#263238;stroke:#263238;stroke-linecap:round;stroke-linejoin:round;stroke-width:0.75px"></path><path d="M173.88,140.56a9,9,0,0,1-.2,6.39,26.77,26.77,0,0,1-3.23,5.67" style="fill:none;stroke:#263238;stroke-linecap:round;stroke-linejoin:round"></path><path d="M175.84,158.8a11.73,11.73,0,0,1,12.58-1.86" style="fill:none;stroke:#263238;stroke-linecap:round;stroke-linejoin:round"></path><path d="M178.63,153.39a13,13,0,0,1-.79-3.53,2.46,2.46,0,0,1,1.2-2.32c1.36-.66,2.85.55,4,1.59s2.85,2,4,1,.52-2.68-.06-4-.91-3.19.34-3.88" style="fill:none;stroke:#263238;stroke-linecap:round;stroke-linejoin:round"></path><path d="M167.46,134.46l-.42.22a4.1,4.1,0,0,0-.68,6.45l.06.06a2.36,2.36,0,0,1,.53.92c.42,1.39-.58,2.3-1.51,3.06a3.87,3.87,0,0,0-1.62,2.14c-.16.9.74,2,1.57,1.59" style="fill:none;stroke:#263238;stroke-linecap:round;stroke-linejoin:round"></path><rect x="181.11" y="136.25" width="3.42" height="3.42" style="fill:#263238"></rect><rect x="183.88" y="163.26" width="3.42" height="3.42" style="fill:#263238"></rect><rect x="192.15" y="148.32" width="3.42" height="3.42" style="fill:#263238"></rect><rect x="159.6" y="139.86" width="3.42" height="3.42" style="fill:#263238"></rect><path d="M170,167.25a33.6,33.6,0,0,1-6.5-13.91.24.24,0,0,1,0-.08" style="fill:none;stroke:#263238;stroke-linecap:round;stroke-linejoin:round"></path><path d="M159.86,160.44a33.82,33.82,0,0,0,5.13,9.37" style="fill:none;stroke:#263238;stroke-linecap:round;stroke-linejoin:round"></path><path d="M160,172.36a34.52,34.52,0,0,1-3.42-5.49" style="fill:none;stroke:#263238;stroke-linecap:round;stroke-linejoin:round"></path></g><g id="freepik--Wish-3--inject-10"><path d="M231.59,88.11v56.77l12.49-13.23H380.7a10.57,10.57,0,0,0,10.55-10.57V88.14h0A10.55,10.55,0,0,0,380.7,77.58H242.15A10.56,10.56,0,0,0,231.59,88.11Z" style="fill:#fff;stroke:#263238;stroke-linecap:round;stroke-linejoin:round"></path><line x1="308.61" y1="90.15" x2="339.37" y2="90.15" style="fill:none;stroke:#263238;stroke-linecap:round;stroke-linejoin:round;stroke-width:2px"></line><line x1="280.77" y1="100.88" x2="339.37" y2="100.88" style="fill:none;stroke:#263238;stroke-linecap:round;stroke-linejoin:round"></line><line x1="280.77" y1="109.74" x2="339.37" y2="109.74" style="fill:none;stroke:#263238;stroke-linecap:round;stroke-linejoin:round"></line><line x1="280.77" y1="119.53" x2="314.52" y2="119.53" style="fill:none;stroke:#263238;stroke-linecap:round;stroke-linejoin:round"></line><circle cx="374.84" cy="104.79" r="28.36" transform="translate(137.34 413.14) rotate(-68.01)" style="fill:#4240DD"></circle><circle cx="374.84" cy="104.79" r="28.36" transform="translate(137.34 413.14) rotate(-68.01)" style="fill:#4240DD;stroke:#263238;stroke-linecap:round;stroke-linejoin:round"></circle><path d="M376.16,133.19c4.19-.31,6.07-.61,7.91-1.49l-1.68-8.58-13.36.79-.51,8.4A20.92,20.92,0,0,0,376.16,133.19Z" style="fill:#fff"></path><g style="clip-path:url(#freepik--clip-path-4--inject-10)"><path d="M366.4,123.28c2.43,4,6,6.62,10,6.62s7.56-2.57,10-6.62Z" style="fill:#263238;stroke:#263238;stroke-linecap:round;stroke-linejoin:round;stroke-width:0.75px"></path></g><path d="M376.16,133.19c4.19-.31,6.07-.61,7.91-1.49l-1.68-8.58-13.36.79-.51,8.4A20.92,20.92,0,0,0,376.16,133.19Z" style="fill:none;stroke:#263238;stroke-linecap:round;stroke-linejoin:round;stroke-width:0.75px"></path><path d="M390.81,108.16A2.56,2.56,0,0,0,389,108c-.36-10.2-6.7-18.33-14.47-18.33S360.44,97.82,360.08,108c-.61-.16.34-.55-.22-.28-1.51.75-1.89,2.69-1.45,4.54s1.73,3.58,3.08,3.51c2.08,7.25,6.88,12.39,13.06,12.39S386,123,388.09,115.8a4.2,4.2,0,0,0,3.65-2.58C392.74,111.17,392.33,108.9,390.81,108.16Z" style="fill:#fff;stroke:#263238;stroke-linecap:round;stroke-linejoin:round;stroke-width:0.75px"></path><path d="M372.11,110.19l-.12.55a14.39,14.39,0,0,1-2,4.88h0l2.91,1.58" style="fill:none;stroke:#263238;stroke-linecap:round;stroke-linejoin:round;stroke-width:0.75px"></path><path d="M367.06,109.91c0,.76-.3,1.38-.66,1.38s-.66-.62-.66-1.38.29-1.39.66-1.39S367.06,109.14,367.06,109.91Z" style="fill:#263238"></path><path d="M378.11,109.91c0,.76-.3,1.38-.67,1.38s-.66-.62-.66-1.38.3-1.39.66-1.39S378.11,109.14,378.11,109.91Z" style="fill:#263238"></path><path d="M364.43,106.31a4.69,4.69,0,0,1,5.42-2.35" style="fill:none;stroke:#263238;stroke-linecap:round;stroke-linejoin:round;stroke-width:0.75px"></path><path d="M382.26,106a4.7,4.7,0,0,0-5.42-2.34" style="fill:none;stroke:#263238;stroke-linecap:round;stroke-linejoin:round;stroke-width:0.75px"></path><line x1="363.1" y1="106.45" x2="360.16" y2="106.45" style="fill:#fff;stroke:#263238;stroke-linecap:round;stroke-linejoin:round;stroke-width:0.75px"></line><rect x="363.71" y="106.45" width="8.16" height="5.26" style="fill:none;stroke:#263238;stroke-linecap:round;stroke-linejoin:round;stroke-width:0.75px"></rect><rect x="375.45" y="106.45" width="8.16" height="5.26" style="fill:none;stroke:#263238;stroke-linecap:round;stroke-linejoin:round;stroke-width:0.75px"></rect><line x1="371.88" y1="107.99" x2="375.45" y2="107.99" style="fill:none;stroke:#263238;stroke-linecap:round;stroke-linejoin:round;stroke-width:0.75px"></line><line x1="388.52" y1="106.45" x2="383.61" y2="106.45" style="fill:#fff;stroke:#263238;stroke-linecap:round;stroke-linejoin:round;stroke-width:0.75px"></line><path d="M361.1,108c1,.1-.59-4.11,2.41-10.56,2-4.35,7.82-3.17,14.76-3,7.12.18,8.53,11.6,9.14,16.43,0,.3.75-3.22,1-3.21,3.18.1,2.16-16-1.42-16.54,0,0-2.86-5.45-13.9-5s-12.51,7.43-12.51,7.43S355.11,107.41,361.1,108Z" style="fill:#263238;stroke:#263238;stroke-linecap:round;stroke-linejoin:round;stroke-width:0.75px"></path><path d="M377.51,117.78a12.45,12.45,0,0,1-.26,3.7,3.11,3.11,0,0,1-3.13,2.51c-2,.06-3.81-3.08-3.13-5C371,119,374.84,119.43,377.51,117.78Z" style="fill:none;stroke:#263238;stroke-linecap:round;stroke-linejoin:round;stroke-width:0.75px"></path><path d="M361.49,107.71c.75,1.14-.13,3.15-.24,4.52-.16,1.79,1,5.91,1.82,7.52" style="fill:#fff;stroke:#263238;stroke-linecap:round;stroke-linejoin:round;stroke-width:0.75px"></path><rect x="254.95" y="98.03" width="2.78" height="13.11" transform="translate(0.51 -1.24) rotate(0.28)" style="fill:#fff;stroke:#263238;stroke-linecap:round;stroke-linejoin:round"></rect><path d="M256.41,91.08s4.34,4.82,0,7C256.37,98,252.81,96.46,256.41,91.08Z" style="fill:#fff;stroke:#263238;stroke-linecap:round;stroke-linejoin:round"></path><path d="M256.57,94.29s1.73,2.16-.2,3.74A2.74,2.74,0,0,1,256.57,94.29Z" style="fill:#263238;stroke:#263238;stroke-linecap:round;stroke-linejoin:round;stroke-width:0.75px"></path><rect x="243.29" y="104.68" width="26.37" height="19.24" transform="translate(0.56 -1.24) rotate(0.28)" style="fill:#263238;stroke:#263238;stroke-linecap:round;stroke-linejoin:round;stroke-width:0.75px"></rect><path d="M242.43,104.56l0,8.24a.94.94,0,0,0,1.42.68L247,111.8a1,1,0,0,1,1,0l1.57.94a5.21,5.21,0,0,0,5.06.11l1.87-1a1.09,1.09,0,0,1,1.05,0l1.07.67a5.19,5.19,0,0,0,5.53-.1l.72-.49a1,1,0,0,1,1.08-.06l3.11,1.68a1,1,0,0,0,1.44-.66l0-8.23a.88.88,0,0,0-.93-.8l-26.31-.12A.86.86,0,0,0,242.43,104.56Z" style="fill:#fff;stroke:#263238;stroke-linecap:round;stroke-linejoin:round;stroke-width:0.75px"></path><path d="M242.43,104.56l0,8.24a.94.94,0,0,0,1.42.68L247,111.8a1,1,0,0,1,1,0l1.57.94a5.21,5.21,0,0,0,5.06.11l1.87-1a1.09,1.09,0,0,1,1.05,0l1.07.67a5.19,5.19,0,0,0,5.53-.1l.72-.49a1,1,0,0,1,1.08-.06l3.11,1.68a1,1,0,0,0,1.44-.66l0-8.23a.88.88,0,0,0-.93-.8l-26.31-.12A.86.86,0,0,0,242.43,104.56Z" style="fill:#fff;stroke:#263238;stroke-linecap:round;stroke-linejoin:round"></path></g><g id="freepik--Floor--inject-10"><polyline points="463.36 451.92 287.88 451.92 237.18 451.92 36.64 451.92" style="fill:none;stroke:#263238;stroke-linecap:round;stroke-linejoin:round"></polyline></g><g id="freepik--Clock--inject-10"><g id="freepik--freepik--Clock--inject-2--inject-10"><circle cx="196.22" cy="90.13" r="25.02" transform="translate(-8.64 21.89) rotate(-6.25)" style="fill:none;stroke:#263238;stroke-linecap:round;stroke-linejoin:round"></circle><circle cx="196.23" cy="90.11" r="20.73" transform="translate(-9.65 24.98) rotate(-7.11)" style="fill:none;stroke:#263238;stroke-linecap:round;stroke-linejoin:round"></circle><polyline points="202.54 73.87 196.22 90.13 196.22 78.67" style="fill:none;stroke:#263238;stroke-linecap:round;stroke-linejoin:round"></polyline></g></g></svg>
