<svg xmlns="http://www.w3.org/2000/svg" viewBox="0 0 500 500"><g id="freepik--Floor--inject-35"><path d="M479.25,431.58c0,.15-102.65.27-229.24.27s-229.26-.12-229.26-.27,102.63-.26,229.26-.26S479.25,431.44,479.25,431.58Z" style="fill:#263238"></path></g><g id="freepik--Confetti--inject-35"><path d="M215.13,129.59c-.72,0-1.34-2.09-1.38-4.69s.51-4.73,1.23-4.74,1.34,2.09,1.38,4.7S215.85,129.58,215.13,129.59Z" style="fill:#40B4FF"></path><path d="M209.44,87.81c-.25.68-2.64.43-5.43-.22s-5-1.5-5-2.22,2.6-1,5.56-.32S209.69,87.14,209.44,87.81Z" style="fill:#40B4FF"></path><path d="M260.3,164.22c-.6.41-2.66-1.58-4.6-4.43s-3-5.49-2.45-5.9,2.65,1.58,4.6,4.43S260.89,163.82,260.3,164.22Z" style="fill:#40B4FF"></path><path d="M32.85,255.43c.18.7-1.25,1.68-3.19,2.19s-3.68.36-3.86-.33,1.25-1.68,3.19-2.19S32.67,254.74,32.85,255.43Z" style="fill:#40B4FF"></path><path d="M95.45,135.19c-.29.66-2.42.35-4.75-.69s-4-2.41-3.7-3.07,2.42-.34,4.75.69S95.74,134.54,95.45,135.19Z" style="fill:#40B4FF"></path><path d="M411.86,82.58c-.43-.57.58-2.09,2.26-3.38s3.41-1.89,3.85-1.32-.57,2.08-2.26,3.38S412.3,83.15,411.86,82.58Z" style="fill:#40B4FF"></path><path d="M418,116.87c.43.59-.63,2.1-2,3.79s-2.54,3.07-3.22,2.79-.39-2.4,1.18-4.4S417.63,116.3,418,116.87Z" style="fill:#40B4FF"></path><path d="M371,203.84c.43.59-.63,2.09-1.94,3.79s-2.55,3.06-3.22,2.78-.4-2.4,1.17-4.39S370.58,203.26,371,203.84Z" style="fill:#40B4FF"></path><path d="M353.27,110.5c-.45.57-1.86.18-3.16-.86s-2-2.33-1.54-2.89,1.87-.18,3.16.86S353.72,109.94,353.27,110.5Z" style="fill:#455a64"></path><path d="M462.87,158.7c-.66-.29-.77-1.47-.26-2.64s1.48-1.88,2.13-1.58.77,1.47.25,2.64S463.52,159,462.87,158.7Z" style="fill:#455a64"></path><path d="M253.49,52.38c-.59-.41-.33-1.8.57-3.1s2.12-2,2.71-1.6.33,1.8-.57,3.1S254.07,52.79,253.49,52.38Z" style="fill:#455a64"></path><path d="M167.68,155c-.14.71-1.73,1-3.55.63s-3.18-1.22-3-1.93,1.73-1,3.55-.62S167.82,154.27,167.68,155Z" style="fill:#455a64"></path><path d="M41.17,175.52A4.88,4.88,0,0,1,38.81,177a10.48,10.48,0,0,1-7.62-.29A9.88,9.88,0,0,1,27,173.33a10.53,10.53,0,0,1-1.29-2.8,11.18,11.18,0,0,1,2-9.72,8.7,8.7,0,0,1,6.68-3.4A5.43,5.43,0,0,1,38.07,159a4.22,4.22,0,0,1,1.17,3.88,5.5,5.5,0,0,1-3.79,4,6.78,6.78,0,0,1-1.77.23,9,9,0,0,1-5.78-2.49,11.67,11.67,0,0,1-3-4.47,11.87,11.87,0,0,1-.3-7.62,5.25,5.25,0,0,1,1.3-2.47c.12.07-.36.93-.71,2.62a12,12,0,0,0,.74,7,10.63,10.63,0,0,0,2.84,3.92,7.81,7.81,0,0,0,4.92,2,4.16,4.16,0,0,0,2.56-.82,3.87,3.87,0,0,0,1.5-2.28,2.68,2.68,0,0,0-.77-2.48A3.94,3.94,0,0,0,34.29,159a6.07,6.07,0,0,0-3,.8,8.52,8.52,0,0,0-2.42,2,9.89,9.89,0,0,0-2.11,5.59,10.12,10.12,0,0,0,.25,2.82,9.63,9.63,0,0,0,1,2.43,8.74,8.74,0,0,0,3.62,3.1,10.45,10.45,0,0,0,7,.72C40.28,176,41.1,175.4,41.17,175.52Z" style="fill:#455a64"></path><path d="M147.23,97.87a17.82,17.82,0,0,0-2.72,1.44,7.74,7.74,0,0,0-2.25,2.67,6.82,6.82,0,0,0-.56,4.45,6.71,6.71,0,0,0,2.91,4.4,4.26,4.26,0,0,0,2.73.59,2,2,0,0,0,1.74-1.71,3,3,0,0,0-1-2.66,6,6,0,0,0-3.06-1.39,8.4,8.4,0,0,0-6.85,2.07,7,7,0,0,0-2.44,6.53,5.34,5.34,0,0,0,1.51,2.94,3.53,3.53,0,0,0,2.82,1,3.75,3.75,0,0,0,2.58-1.25,2.57,2.57,0,0,0,.47-2.48,3.9,3.9,0,0,0-1.62-2,4,4,0,0,0-2.37-.62,6.53,6.53,0,0,0-4,1.86,10.59,10.59,0,0,0-2.07,2.89,28.32,28.32,0,0,1-1.34,2.85,8,8,0,0,1,.79-3.1,10.15,10.15,0,0,1,2-3.25,7.28,7.28,0,0,1,4.58-2.35,5.17,5.17,0,0,1,5.3,3.35,4.12,4.12,0,0,1,.18,1.92,3.87,3.87,0,0,1-.81,1.84,5.38,5.38,0,0,1-5.62,1.6,5,5,0,0,1-1.87-1.1,6.75,6.75,0,0,1-2-3.76,8.16,8.16,0,0,1,.37-4.34,9,9,0,0,1,2.54-3.64,9.84,9.84,0,0,1,8.14-2.41,7.48,7.48,0,0,1,3.82,1.82,4.47,4.47,0,0,1,1.44,4,3.42,3.42,0,0,1-1,2,3.51,3.51,0,0,1-1.92.89A5.52,5.52,0,0,1,144,112a7.81,7.81,0,0,1-3.34-5.32,7.67,7.67,0,0,1,.88-5.06,8,8,0,0,1,2.67-2.76C146,97.71,147.24,97.8,147.23,97.87Z" style="fill:#455a64"></path><path d="M354.85,144.56a17.55,17.55,0,0,0,1.84,2.48,7.76,7.76,0,0,0,3,1.81,6.82,6.82,0,0,0,4.49-.12,6.71,6.71,0,0,0,3.9-3.55,4.26,4.26,0,0,0,.17-2.79,2,2,0,0,0-2-1.45,3,3,0,0,0-2.46,1.43,6,6,0,0,0-.92,3.24,8.41,8.41,0,0,0,3.09,6.45,7,7,0,0,0,6.82,1.41,5.24,5.24,0,0,0,2.68-1.93,3.54,3.54,0,0,0,.54-2.93,3.72,3.72,0,0,0-1.62-2.37,2.57,2.57,0,0,0-2.53-.08,3.93,3.93,0,0,0-1.77,1.9,4,4,0,0,0-.25,2.45,6.53,6.53,0,0,0,2.45,3.71,10.85,10.85,0,0,0,3.17,1.6,27.11,27.11,0,0,1,3,.89,8,8,0,0,1-3.18-.3,10.57,10.57,0,0,1-3.52-1.49,7.26,7.26,0,0,1-3-4.18,5.15,5.15,0,0,1,2.51-5.73,3.88,3.88,0,0,1,3.81,0,5.16,5.16,0,0,1,2.33,3.21,5.46,5.46,0,0,1,.11,2.1,4.93,4.93,0,0,1-.81,2,6.81,6.81,0,0,1-3.42,2.55,8.14,8.14,0,0,1-4.33.29,9,9,0,0,1-4-2,9.86,9.86,0,0,1-3.62-7.69,7.37,7.37,0,0,1,1.22-4,4.46,4.46,0,0,1,3.71-2,3.42,3.42,0,0,1,2.08.71,3.55,3.55,0,0,1,1.17,1.77,5.57,5.57,0,0,1-.28,3.69,7.77,7.77,0,0,1-4.74,4.1,7.61,7.61,0,0,1-5.14-.1,8,8,0,0,1-3.14-2.22C354.88,145.8,354.78,144.56,354.85,144.56Z" style="fill:#455a64"></path><path d="M274.12,105.77c0,.08-.54.41-1.68.52a7.62,7.62,0,0,1-4.67-1.13A7.93,7.93,0,0,1,264.1,99a7.72,7.72,0,0,1,.91-4.33,5.68,5.68,0,0,1,1.63-1.84,4,4,0,0,1,2.55-.76,3.77,3.77,0,0,1,2.51,1.06,3.09,3.09,0,0,1,.85,2.61A3.87,3.87,0,0,1,271.38,98,4.11,4.11,0,0,1,269.26,99a6.21,6.21,0,0,1-4-.72A7.74,7.74,0,0,1,262.7,96a7.54,7.54,0,0,1-1.46-4.59c.05-1.14.34-1.72.42-1.7s0,.63.19,1.67a7.8,7.8,0,0,0,1.73,4,7,7,0,0,0,2.28,1.79,5.07,5.07,0,0,0,3.12.46,2.72,2.72,0,0,0,1.36-.72,2.37,2.37,0,0,0,.69-1.37,1.51,1.51,0,0,0-.44-1.31,2.23,2.23,0,0,0-1.47-.6,3.17,3.17,0,0,0-2.78,1.8,6.42,6.42,0,0,0-.8,3.48,7,7,0,0,0,2.84,5.35,7.89,7.89,0,0,0,4.06,1.44C273.49,105.76,274.09,105.65,274.12,105.77Z" style="fill:#455a64"></path></g><g id="freepik--character-1--inject-35"><path d="M109.73,237.07c.07-6.41.26-13.16.26-13.16s8.27-1.31,10.06-12.07c1.71-10.27.19-34,.19-34h0a31,31,0,0,0-34.51,7.63h0L86,237.55c0,6,5.27,10.83,11.74,10.74h0C104.32,248.2,109.67,243.18,109.73,237.07Z" style="fill:#b78876"></path><path d="M119.15,196.32a1.38,1.38,0,0,1-1.35,1.38,1.32,1.32,0,0,1-1.41-1.26,1.37,1.37,0,0,1,1.34-1.38A1.33,1.33,0,0,1,119.15,196.32Z" style="fill:#263238"></path><path d="M119.3,194.81c-.17.18-1.21-.6-2.7-.61s-2.58.73-2.74.54.09-.4.57-.74a3.81,3.81,0,0,1,2.2-.66,3.65,3.65,0,0,1,2.15.71C119.23,194.4,119.39,194.73,119.3,194.81Z" style="fill:#263238"></path><path d="M103.63,196.68a1.39,1.39,0,0,1-1.34,1.39,1.33,1.33,0,0,1-1.42-1.26,1.39,1.39,0,0,1,1.34-1.39A1.33,1.33,0,0,1,103.63,196.68Z" style="fill:#263238"></path><path d="M103.78,195.23c-.18.18-1.22-.6-2.7-.61s-2.59.73-2.75.55.1-.41.58-.75a3.81,3.81,0,0,1,2.2-.66,3.68,3.68,0,0,1,2.15.71C103.71,194.83,103.86,195.16,103.78,195.23Z" style="fill:#263238"></path><path d="M109.09,206.31a9.54,9.54,0,0,1,2.42-.42c.38,0,.74-.11.81-.37a2,2,0,0,0-.25-1.13c-.35-.92-.71-1.89-1.1-2.9-1.53-4.13-2.63-7.52-2.46-7.58s1.54,3.24,3.07,7.37c.36,1,.72,2,1,2.91a2.26,2.26,0,0,1,.19,1.49,1,1,0,0,1-.63.56,2.73,2.73,0,0,1-.65.08A10.16,10.16,0,0,1,109.09,206.31Z" style="fill:#263238"></path><path d="M110,223.91a27.35,27.35,0,0,1-14.41-4s3.45,7.43,14.24,6.51Z" style="fill:#a36957"></path><path d="M118.51,173.3c-5.78-7.23-16.16-6.93-19.78-7-3.18,0-18.52,3.1-24.75,20a2.91,2.91,0,0,0,0-.3c-2.52-3.5-8.25-3.26-11.48-.4s-4.35,7.45-4.47,11.77c-.11,4,.17,8.78-3.07,11.15-1.3.95-3,1.28-4.37,2.06a8,8,0,0,0-4.06,7c0,2.14.86,4.59-.54,6.2a10.11,10.11,0,0,1-2.72,1.71c-2.57,1.55-3.67,4.84-3.45,7.84s.71,4,2,6.74c0,0,22.59-.23,32.87,0,0,0-.08-16.32-.29-32.45,2,5.06,5.44,9.33,11.34,10.18L87,194.51s15.41-1.33,18.28-15.63l.08.08c.88,2.2,2.42,6.9,1.3,10.67l15.12,2.68S126.13,182.85,118.51,173.3Z" style="fill:#263238"></path><path d="M82.55,195.9s.13,0,.36,0,.56.09,1,.12A19.65,19.65,0,0,0,92.85,195a17.78,17.78,0,0,0,2.89-1.34,19.68,19.68,0,0,0,2.81-2,18.94,18.94,0,0,0,2.37-2.47,18.34,18.34,0,0,0,1.78-2.65,19.8,19.8,0,0,0,2.46-8.67c0-.43,0-.77,0-1s0-.35,0-.35,0,.12.06.35a7.56,7.56,0,0,1,.06,1,16.52,16.52,0,0,1-.35,3.71,18.65,18.65,0,0,1-1.89,5.19,18.41,18.41,0,0,1-1.8,2.74A17.51,17.51,0,0,1,96,194.07a18.83,18.83,0,0,1-8.41,2.4,16.46,16.46,0,0,1-3.71-.24,7.75,7.75,0,0,1-1-.22C82.66,196,82.55,195.92,82.55,195.9Z" style="fill:#263238"></path><path d="M74.5,198.22a5.17,5.17,0,0,1-1.25-1.69,12.39,12.39,0,0,1-1.42-4.9,12.25,12.25,0,0,1,.68-5,5.2,5.2,0,0,1,1-1.86c.08,0-.28.76-.63,2a14.11,14.11,0,0,0-.51,4.9,14.34,14.34,0,0,0,1.23,4.76C74.11,197.52,74.57,198.17,74.5,198.22Z" style="fill:#455a64"></path><path d="M36.51,236.13a3.87,3.87,0,0,1-.35-.63,7.21,7.21,0,0,1-.54-2,8.29,8.29,0,0,1,.3-3.28,7.71,7.71,0,0,1,2.38-3.66c1.24-1.1,3.07-1.58,4.26-2.94a3.77,3.77,0,0,0,.82-2.58,24.44,24.44,0,0,0-.42-3,6.66,6.66,0,0,1,1.91-6.31,24,24,0,0,1,5.94-4c2.09-1.2,4.11-2.62,5-4.67s.71-4.34.76-6.45a16.11,16.11,0,0,1,1.18-6,12.62,12.62,0,0,1,3-4.37A10.88,10.88,0,0,1,64.51,184a9.77,9.77,0,0,1,3.25-.56,8.09,8.09,0,0,1,2.06.26,3.48,3.48,0,0,1,.68.23,12.49,12.49,0,0,0-2.74-.29,10.06,10.06,0,0,0-3.15.64A10.56,10.56,0,0,0,61,186.48a12.14,12.14,0,0,0-2.84,4.27,15.63,15.63,0,0,0-1.1,5.79c0,2.08.22,4.43-.78,6.66s-3.13,3.7-5.24,4.91A23.75,23.75,0,0,0,45.24,212a7,7,0,0,0-1.71,2.77,6.81,6.81,0,0,0-.09,3.11,23.6,23.6,0,0,1,.39,3.11,4.22,4.22,0,0,1-.94,2.86,7.85,7.85,0,0,1-2.25,1.64,13,13,0,0,0-2.11,1.3,7.53,7.53,0,0,0-2.33,3.47,8.31,8.31,0,0,0-.38,3.17,8,8,0,0,0,.44,2A4.2,4.2,0,0,1,36.51,236.13Z" style="fill:#263238"></path><path d="M87.37,197.78a6.39,6.39,0,0,0-3.47.2,4.46,4.46,0,0,0-2.56,2.28,4.72,4.72,0,0,0,0,3.45,7.92,7.92,0,0,0,1.94,2.91,5.4,5.4,0,0,0,2.08,1.4,2.56,2.56,0,0,0,2.4-.35" style="fill:#b78876"></path><path d="M86.68,204.76c.13.05-.37.74-1.43.45A2.31,2.31,0,0,1,84,204.06a5.06,5.06,0,0,1-.56-1.92,3,3,0,0,1,.5-2,2,2,0,0,1,1.52-.88c1.09,0,1.42.73,1.3.75s-.51-.3-1.22-.13a1.94,1.94,0,0,0-1.22,2.21c.12,1.19.57,2.28,1.2,2.55S86.61,204.67,86.68,204.76Z" style="fill:#a36957"></path><path d="M82.92,207.17s-.35.28-.89.87A6.53,6.53,0,0,0,80.47,211a5.56,5.56,0,0,0,1,4.63,5,5,0,0,0,2.25,1.7,5.08,5.08,0,0,0,3,.15,4.63,4.63,0,0,0,2.52-1.62,5.33,5.33,0,0,0,1.06-2.63,6.58,6.58,0,0,0-1.19-4.66,4.59,4.59,0,0,0-2.69-1.83,10.33,10.33,0,0,0-1.23-.13.82.82,0,0,1,.32-.08,3.35,3.35,0,0,1,1,0,4.62,4.62,0,0,1,2.94,1.8,6.82,6.82,0,0,1,1.37,4.94,5.68,5.68,0,0,1-1.12,2.89,5.09,5.09,0,0,1-2.8,1.81,5.41,5.41,0,0,1-5.79-2.06,5.9,5.9,0,0,1-1-5,6.41,6.41,0,0,1,1.77-3,5.76,5.76,0,0,1,.75-.59C82.81,207.2,82.91,207.15,82.92,207.17Z" style="fill:#455a64"></path><path d="M110.27,208.84l39.61-1a3.71,3.71,0,0,1,3.76,3.24l.08.78a3.71,3.71,0,0,1-3.72,4.18h0a3.72,3.72,0,0,1-3.65-3.33l0-1.1-35,.94C108.89,212.1,108.86,210.74,110.27,208.84Z" style="fill:#455a64"></path><path d="M102.74,215a6.35,6.35,0,0,0,2-.94,5.2,5.2,0,0,0,1.49-1.86,7.25,7.25,0,0,0,.63-2.88,7,7,0,0,0-1.59-5,7.3,7.3,0,0,0-1.83-1.3,3.12,3.12,0,0,1,2.09,1,5.51,5.51,0,0,1,1.39,2.19,9.07,9.07,0,0,1,.46,3.11,7.38,7.38,0,0,1-.72,3.07,5,5,0,0,1-1.71,1.95A2.93,2.93,0,0,1,102.74,215Z" style="fill:#a36957"></path><path d="M149.55,211.11s-.17.16-.38.49a1.67,1.67,0,0,0-.11,1.53,1.5,1.5,0,0,0,1.91.69,2.05,2.05,0,0,0,.88-2.43,2.66,2.66,0,0,0-2-1.91,2.73,2.73,0,0,0-2.26.47,3.07,3.07,0,0,0-1,1.32c-.15.37-.18.59-.22.59s-.07-.24,0-.66A3,3,0,0,1,150,209a3.13,3.13,0,0,1,2.38,2.23,2.52,2.52,0,0,1-1.18,3,1.9,1.9,0,0,1-2.45-1,1.78,1.78,0,0,1,.29-1.78C149.3,211.15,149.54,211.09,149.55,211.11Z" style="fill:#263238"></path><path d="M122.77,308.63a36.73,36.73,0,0,1,3.29-11.36l30.11-7.09s-13.72-40.34-17.55-45.29c-10-12.82-28-10.58-28-10.58L87.11,234a54.94,54.94,0,0,0-17.58,4.59l-.58.15v.12c-6.75,3.29-12.77,8.84-14.51,17.88-.22,1.19-.43,2.29-.61,3.3h0l-4.91,25,22.46.27L70,318.52c-1.45,5-5.5,3.8-11.49,26.88a188,188,0,0,0-5.93,46.65c0,14,1.32,24.81-.34,38.7h80.23c.87-32.71-2.46-89.39-5.32-98.44Z" style="fill:#40B4FF"></path><path d="M70.4,308.67a2,2,0,0,1,.54-.06l1.54-.07c1.33,0,3.27-.08,5.66-.11,4.77-.05,11.37-.05,18.66,0l18.66.13,5.66.06,1.54,0a2,2,0,0,1,.53,0,1.84,1.84,0,0,1-.53.06l-1.54.07c-1.33,0-3.27.08-5.66.11-4.77,0-11.37,0-18.66,0l-18.66-.13-5.66-.06-1.54,0A2.45,2.45,0,0,1,70.4,308.67Z" style="fill:#263238"></path><g style="opacity:0.30000000000000004"><path d="M109.57,282.72s-7.06,44.49-27.67,43c0,0-9.28-.11-12.26-6.27v-2.43Z"></path></g><path d="M138.65,244.65a4.17,4.17,0,0,1-.79.06l-2.26,0-8.32.08-27.43.07-27.44-.07-8.31-.08-2.26,0a4,4,0,0,1-.79-.06,6.93,6.93,0,0,1,.79-.05l2.26,0,8.31-.08,27.44-.08,27.43.08,8.32.08,2.26,0A7.21,7.21,0,0,1,138.65,244.65Z" style="fill:#fafafa"></path><path d="M145.47,259.3a.64.64,0,0,1-.24,0l-.69,0-2.67,0-9.82.08-32.37.08-32.38-.08-9.82-.08-2.66,0-.7,0a.6.6,0,0,1-.23,0l.23,0,.7,0,2.66-.05,9.82-.09L99.68,259l32.37.07,9.82.09,2.67.05.69,0A.75.75,0,0,1,145.47,259.3Z" style="fill:#fafafa"></path><path d="M149.79,272l-.25,0-.74,0-2.83.05-10.44.08-34.44.08-34.44-.08-10.43-.08-2.84-.05-.74,0-.25,0a.79.79,0,0,1,.25,0l.74,0,2.84,0,10.43-.09,34.44-.07,34.44.07,10.44.09,2.83,0,.74,0A.79.79,0,0,1,149.79,272Z" style="fill:#fafafa"></path><path d="M145.47,287.83a6.42,6.42,0,0,1-.76.05l-2.15.05-7.94.08-26.18.08L82.26,288l-7.94-.08-2.15-.05a6.42,6.42,0,0,1-.76-.05,3.75,3.75,0,0,1,.76-.06l2.15,0,7.94-.08,26.18-.07,26.18.07,7.94.08,2.15,0A3.75,3.75,0,0,1,145.47,287.83Z" style="fill:#fafafa"></path><path d="M123.36,304.5a1.8,1.8,0,0,1-.54.05l-1.55.05-5.69.08-18.78.08L78,304.68l-5.7-.08-1.54-.05a1.73,1.73,0,0,1-.54-.05,1.73,1.73,0,0,1,.54-.05l1.54-.05,5.7-.08,18.78-.08,18.78.08,5.69.08,1.55.05A1.8,1.8,0,0,1,123.36,304.5Z" style="fill:#fafafa"></path><path d="M124.54,320.43a3.74,3.74,0,0,1-.57.05l-1.62,0-6,.08-19.69.08L77,320.61l-6-.08-1.63,0a3.48,3.48,0,0,1-.56-.05,2.05,2.05,0,0,1,.56-.06l1.63-.05,6-.08,19.69-.07,19.69.07,6,.08,1.62.05A2.18,2.18,0,0,1,124.54,320.43Z" style="fill:#fafafa"></path><path d="M128.7,339.35a5.16,5.16,0,0,1-.69,0l-2,.05-7.33.08-24.19.08-24.19-.08L63,339.45l-2-.05a5.4,5.4,0,0,1-.69,0,3.15,3.15,0,0,1,.69-.06l2-.05,7.33-.08,24.19-.08,24.19.08,7.33.08,2,.05A3,3,0,0,1,128.7,339.35Z" style="fill:#fafafa"></path><path d="M130.28,359.2a6.77,6.77,0,0,1-.77.05l-2.18.07-8,.13-26.47.26-26.48.11-8,0-2.18,0a4,4,0,0,1-.76,0,3.75,3.75,0,0,1,.76-.06l2.18-.06,8-.14,26.48-.26,26.47-.1,8,0,2.18,0A3.6,3.6,0,0,1,130.28,359.2Z" style="fill:#fafafa"></path><path d="M131.64,380.8a4.1,4.1,0,0,1-.8.06l-2.28.06-8.41.14-27.73.27-27.73.11-8.41,0-2.28,0a3.87,3.87,0,0,1-.8-.05,7.29,7.29,0,0,1,.8-.05l2.28-.07,8.41-.14,27.73-.26,27.73-.12,8.41,0,2.28,0A3.77,3.77,0,0,1,131.64,380.8Z" style="fill:#fafafa"></path><path d="M132.57,401.16a4.35,4.35,0,0,1-.82.06l-2.34.07-8.61.14-28.4.26L64,401.81l-8.61,0-2.34,0a5.13,5.13,0,0,1-.81-.05,4.29,4.29,0,0,1,.81-.06l2.34-.06,8.61-.14,28.41-.27,28.4-.11,8.61,0,2.34,0A6.47,6.47,0,0,1,132.57,401.16Z" style="fill:#fafafa"></path><path d="M131.4,419.69a4.35,4.35,0,0,1-.82.06l-2.34.07-8.61.14-28.4.26-28.41.12-8.61,0-2.34,0a5.36,5.36,0,0,1-.82,0,4.48,4.48,0,0,1,.82-.06l2.34-.06,8.61-.14,28.41-.27,28.4-.11,8.61,0,2.34,0A6.47,6.47,0,0,1,131.4,419.69Z" style="fill:#fafafa"></path><path d="M99.53,430.9s0-.11,0-.31,0-.54,0-.92c0-.85,0-2,.07-3.54.08-3.07.23-7.52.44-13,.42-11,1.2-26.14,2.17-42.87s1.8-31.9,2.32-42.87c.25-5.46.45-9.9.6-13,.07-1.51.13-2.69.17-3.53l.06-.92a.92.92,0,0,1,0-.31,1.43,1.43,0,0,1,0,.31c0,.24,0,.54,0,.92,0,.84,0,2-.07,3.54-.07,3.07-.22,7.51-.44,13-.42,11-1.2,26.14-2.16,42.89s-1.81,31.88-2.33,42.86c-.25,5.46-.45,9.89-.59,13-.08,1.5-.14,2.69-.18,3.53,0,.38,0,.68-.06.92A.92.92,0,0,1,99.53,430.9Z" style="fill:#263238"></path><path d="M122.86,309.64s0-.13-.07-.38-.08-.63-.09-1.11a13.36,13.36,0,0,1,.11-1.77,15.44,15.44,0,0,1,.45-2.3,27.38,27.38,0,0,1,.9-2.69c.38-.94.82-1.94,1.31-3,1-2.06,2.13-4.29,3.06-6.72a23.53,23.53,0,0,0,1-3.64,21.8,21.8,0,0,0,.34-3.51,26.31,26.31,0,0,0-.67-5.95,39,39,0,0,0-1.1-3.91,13,13,0,0,1-.45-1.43,6.54,6.54,0,0,1,.64,1.36,29.11,29.11,0,0,1,1.27,3.89,24.8,24.8,0,0,1,.79,6,19.72,19.72,0,0,1-.32,3.6,22,22,0,0,1-1.06,3.73c-.94,2.48-2.11,4.7-3.1,6.75-.5,1-1,2-1.35,2.92s-.7,1.81-1,2.63a19,19,0,0,0-.52,2.24,17.06,17.06,0,0,0-.19,1.73c0,.48,0,.85,0,1.1S122.88,309.64,122.86,309.64Z" style="fill:#263238"></path><path d="M79.83,260a35,35,0,0,1,.1,3.68c0,2.28.08,5.42.16,8.89s.08,6.62,0,8.9c0,1.14-.09,2.06-.14,2.7a4,4,0,0,1-.13,1,29.25,29.25,0,0,1-.1-3.68c0-2.41-.1-5.49-.16-8.89s-.09-6.62,0-8.9c0-1.14.08-2.06.13-2.7A3.67,3.67,0,0,1,79.83,260Z" style="fill:#263238"></path><path d="M48.92,285.05a6.28,6.28,0,0,1,1.23-.05l3.36,0,11.05.24c4.32.07,8.22.07,11,0l3.35,0a5.16,5.16,0,0,1,1.23,0,5.34,5.34,0,0,1-1.22.16c-.79.07-1.93.15-3.35.21-2.83.13-6.75.19-11.07.12s-8.23-.24-11.06-.39c-1.41-.08-2.56-.15-3.35-.21A5.21,5.21,0,0,1,48.92,285.05Z" style="fill:#263238"></path><g style="opacity:0.30000000000000004"><polygon points="79.83 263.16 84.03 290.22 81.43 295.35 77.33 285.44 79.83 285.11 79.83 263.16"></polygon></g><path d="M124.81,243.38c.19-1.86.56-4.38.64-5.54.26-3.53.87-4.32,2-3.79,1.92.85-.09,9.88,1.29,10,.74.07,1.73-5.21,2.12-7.82.43-2.78.72-6.55.89-7.9s2.72-1.82,2.63.81-.23,10.2.41,10.49c1.75.82,1.68-9.87,2.1-13.36a4.58,4.58,0,0,1,.48-1.7,1.31,1.31,0,0,1,2.41.54c.47,3.41-.21,12.61.05,14.1.08.46,1.22.69,1.5-.84.38-2,.21-11.85,2.23-11,2.21,1-.17,12.56.74,13.74,1.69,2.2,1.88-10.41,4-9.86,1.06.27,1,.67,0,7.4-.49,3.1-2.56,9.81-3.69,15.56,4.86,17.13,13.36,49.23,12.12,59.82-.72,6.06-14.78,10.25-20.82,5.73s-9.83-22.51-9.83-22.51l6.85-6.45L125.81,252h0c-.29-.81-.43-2.93-.86-3.93C124.46,246.9,124.69,244.64,124.81,243.38Z" style="fill:#b78876"></path><path d="M137,311.29a103.69,103.69,0,0,1-2.25-10.16c-1.1-5.64-1.88-10.24-1.74-10.26A103.69,103.69,0,0,1,135.28,301,98.41,98.41,0,0,1,137,311.29Z" style="fill:#a36957"></path><path d="M67,285.32l10.57.13c.7,3.58,3.83,9,3.83,9,8.9-15.44,15.79-36.12,17.5-44.43-.25-.83-.54-1.75-.91-2.78-.43-1.19-.06-3.43.14-4.68.3-1.85.82-4.34,1-5.49.48-3.51,1-4.06,2.27-3.67,1.66.54-.69,9.87.68,10.07.73.11,1.63-3.08,1.89-5.71s1.45-10.68,2.31-11.22c1.27-.79,2.38.46,2.06,3.07s-.73,10.52.65,10.63S111.5,227,111.5,227s-.21-2.9,1.39-2.83c2.89.12.63,14.21.38,15.55-.17.93,1.33,1.1,1.47.09s.83-13.37,3.78-13.27c2.26.08-1.75,11.62-.49,14.29s2.16-9.08,4.31-8.92c.81.06,1.4.22-.08,6.87a148.76,148.76,0,0,1-5.16,15.6c-3.42,18.45-18.43,77.47-42,66.66C62,315,53.94,285.31,53.94,285.31Z" style="fill:#b78876"></path><path d="M108.13,238.63a1.75,1.75,0,0,1-.07-.48c0-.37-.07-.82-.12-1.37-.08-1.27-.19-3-.32-5-.06-1.07-.13-2.24-.2-3.48a1.21,1.21,0,0,0-.21-.77.73.73,0,0,0-.69-.22,1.48,1.48,0,0,0-1.13,1.25c-.48,2.72-.9,5.83-1.41,9-.25,1.61-.49,3.18-.73,4.7a1.71,1.71,0,0,1-.5,1.2.79.79,0,0,1-.77.07,1.18,1.18,0,0,1-.54-.47,2,2,0,0,1-.13-1.23c0-.35.11-.71.16-1a34.2,34.2,0,0,0,.14-7.43,1.64,1.64,0,0,0-.53-1.22.64.64,0,0,0-1,.12,3.76,3.76,0,0,0-.3,1.09c-.08.35-.14.67-.2,1-.12.53-.21,1-.29,1.34a1.54,1.54,0,0,1-.14.47,1.93,1.93,0,0,1,0-.48c.06-.38.12-.82.2-1.36,0-.31.1-.63.15-1a3.66,3.66,0,0,1,.3-1.18.84.84,0,0,1,.62-.45,1.15,1.15,0,0,1,.78.2,1.94,1.94,0,0,1,.71,1.45,32.19,32.19,0,0,1,0,7.53c0,.68-.32,1.49-.07,2,.13.23.45.36.59.24s.24-.49.29-.87c.23-1.52.47-3.09.72-4.7.51-3.22.93-6.26,1.46-9.08a2.58,2.58,0,0,1,.51-1,1.6,1.6,0,0,1,1-.55,1.17,1.17,0,0,1,1.09.38,1.7,1.7,0,0,1,.31,1l.13,3.48c.06,2.07.12,3.78.15,5.05,0,.55,0,1,0,1.38A1.52,1.52,0,0,1,108.13,238.63Z" style="fill:#a36957"></path></g><g id="freepik--character-2--inject-35"><polygon points="247.22 349.02 244.34 431.14 204.06 431.43 203.72 384.47 191.1 431.57 152.81 431.57 169.46 349.54 247.22 349.02" style="fill:#455a64"></polygon><path d="M213,358.45a27.37,27.37,0,0,1-.46,4.27c-.38,2.62-.95,6.24-1.62,10.23a41.15,41.15,0,0,1-1.15,5.63,8,8,0,0,1-2.63,3.95,6.24,6.24,0,0,1-2.92,1.31,2.31,2.31,0,0,1-1.17,0,7.63,7.63,0,0,0,3.77-1.68,7.73,7.73,0,0,0,2.33-3.76,49.38,49.38,0,0,0,1.07-5.55c.67-4,1.32-7.59,1.82-10.19A24.57,24.57,0,0,1,213,358.45Z" style="fill:#263238"></path><path d="M204.62,359.69c.09.06-.24.48-.05,1.16a1.35,1.35,0,0,0,.67.87,1.09,1.09,0,0,0,1.2-.24,1.11,1.11,0,0,0,.39-1.16,1.37,1.37,0,0,0-.77-.78c-.65-.27-1.11,0-1.16-.1s.37-.59,1.31-.38a1.82,1.82,0,0,1,1.24,1,1.75,1.75,0,0,1-.54,1.92,1.73,1.73,0,0,1-2,.28,1.77,1.77,0,0,1-.87-1.36C204,360,204.59,359.6,204.62,359.69Z" style="fill:#263238"></path><path d="M183,363.39c-.18.05-.76-1.6-.53-3.7s1.14-3.59,1.3-3.5-.39,1.61-.59,3.58S183.19,363.34,183,363.39Z" style="fill:#263238"></path><path d="M187.83,363.08c-.18.05-.73-1.65-.58-3.81s.94-3.77,1.11-3.69-.26,1.69-.4,3.74S188,363,187.83,363.08Z" style="fill:#263238"></path><path d="M229.46,364.13c-.2-.05.12-1.76.22-3.89s0-3.86.18-3.89.65,1.71.53,3.93S229.64,364.19,229.46,364.13Z" style="fill:#263238"></path><path d="M234.72,363.84c-.2-.08.43-1.77.57-3.95s-.22-3.94,0-4,.9,1.72.73,4S234.87,363.93,234.72,363.84Z" style="fill:#263238"></path><path d="M253.76,264.93s18,18.54,24.36,15.79c17.27-7.49,31.3-23.25,36.12-28.92.21-1.06.41-2.31.59-3.8a11.65,11.65,0,0,0-.21-3.86,18,18,0,0,0-1.52-4.59c-.79-1.27.34-2.8,1.59-2.28s4.26,3.88,4.89,8.61a2,2,0,0,0,2.69,1.23c3.12-1,13.74-5.15,15.63-5.59,1.68-.39,3.69-.29,2.57.94s-9,5.81-9,5.81,10.15-6.21,11-4.69c.58,1-1.56,3.47-8.68,6.91,0,0,8.4-5.05,9.83-4.89,3.23.37-6.82,6.55-6.82,6.55,7.08-4.26,6.74-4.55,7.51-3.72.57.62-.66,2-4.15,4.88-2.83,2.3-5.3,5.26-9.42,9h0s-42.63,59.27-69.43,41.08c-14.45-9.81-18.42-14.75-26.63-22.18" style="fill:#ffbe9d"></path><path d="M332.63,254.82c.1.18,2.33-1,5-2.73s4.69-3.18,4.57-3.35-2.35,1-5,2.72S332.53,254.64,332.63,254.82Z" style="fill:#eb996e"></path><path d="M330.7,252.27c.11.18,2.55-1,5.46-2.6s5.2-3.08,5.1-3.26-2.55,1-5.46,2.6S330.6,252.09,330.7,252.27Z" style="fill:#eb996e"></path><path d="M328.72,249.62c.1.18,2.43-.88,5.21-2.38s4.95-2.85,4.85-3-2.43.89-5.21,2.38S328.62,249.44,328.72,249.62Z" style="fill:#eb996e"></path><path d="M148,277.17s-9.07,24.2-16,24.22c-18.82.06-38-8.77-44.68-12-.62-.89-1.31-2-2.07-3.26a11.48,11.48,0,0,1-1.35-3.61,17.92,17.92,0,0,1-.44-4.82,1.47,1.47,0,0,0-2.38-1.45c-.93,1-2.35,5.26-1,9.85a1.94,1.94,0,0,1-2,2.2c-3.27.31-14.65.78-16.56,1.14-1.7.32-3.5,1.21-2,1.89s10.53,1.74,10.53,1.74-11.79-1.63-11.94.1c-.11,1.19,2.82,2.55,10.72,2.85,0,0-9.72-1.26-11-.54-2.81,1.64,8.87,3.27,8.87,3.27-8.19-1.07-8-1.46-8.37-.4-.28.8,1.42,1.6,5.75,2.81,3.52,1,7,2.69,12.24,4.47h0s62.8,37.23,80.07,9.83c9.31-14.77,11-20.89,15.51-31" style="fill:#ffbe9d"></path><path d="M71.66,299.49c0,.21-2.55,0-5.64-.5s-5.57-1-5.53-1.25,2.57,0,5.65.51S71.69,299.29,71.66,299.49Z" style="fill:#eb996e"></path><path d="M72.41,296.39c0,.21-2.73.12-6-.2s-6-.74-6-.94,2.73-.12,6,.19S72.43,296.18,72.41,296.39Z" style="fill:#eb996e"></path><path d="M73.16,293.16c0,.21-2.58.17-5.72-.09s-5.68-.63-5.66-.84,2.58-.16,5.72.09S73.18,293,73.16,293.16Z" style="fill:#eb996e"></path><path d="M191.11,241.18l24.87-2c.15-2.91-.06-14.14-.06-14.14s10.35-1.61,10.48-11.95S224.73,179,224.73,179h0a35.94,35.94,0,0,0-36.12,4.54l-1.53,1.18Z" style="fill:#ffbe9d"></path><path d="M215.94,224.91a24,24,0,0,1-13.48-3.83s3.18,7.45,13.51,6.51Z" style="fill:#eb996e"></path><path d="M188.35,195.45c-.17-.08-7.1-2.1-6.88,5s7.28,5.39,7.29,5.18S188.35,195.45,188.35,195.45Z" style="fill:#ffbe9d"></path><path d="M186.51,203s-.12.09-.33.2a1.21,1.21,0,0,1-.92,0,3,3,0,0,1-1.49-2.69,4.05,4.05,0,0,1,.28-1.77,1.46,1.46,0,0,1,.9-1,.64.64,0,0,1,.74.32c.1.19.06.34.1.35s.15-.13.08-.42a.75.75,0,0,0-.29-.43.94.94,0,0,0-.69-.16,1.73,1.73,0,0,0-1.25,1.14,4.25,4.25,0,0,0-.37,2c.09,1.43.87,2.74,1.9,3a1.35,1.35,0,0,0,1.12-.22C186.5,203.16,186.53,203,186.51,203Z" style="fill:#eb996e"></path><path d="M222.45,195.23a1.48,1.48,0,0,1-1.42,1.49,1.4,1.4,0,0,1-1.52-1.33,1.47,1.47,0,0,1,1.42-1.49A1.41,1.41,0,0,1,222.45,195.23Z" style="fill:#263238"></path><path d="M222.77,193.57c-.18.19-1.3-.64-2.89-.63s-2.75.8-2.92.6.1-.43.61-.8a4.06,4.06,0,0,1,2.34-.73,3.87,3.87,0,0,1,2.3.75C222.7,193.13,222.86,193.48,222.77,193.57Z" style="fill:#263238"></path><path d="M206.89,195.6a1.49,1.49,0,0,1-1.43,1.49,1.41,1.41,0,0,1-1.52-1.33,1.47,1.47,0,0,1,1.42-1.49A1.41,1.41,0,0,1,206.89,195.6Z" style="fill:#263238"></path><path d="M207.15,193.86c-.18.2-1.3-.63-2.89-.63s-2.76.8-2.93.61.1-.44.61-.81a4.14,4.14,0,0,1,2.34-.72,4,4,0,0,1,2.31.74C207.07,193.43,207.24,193.78,207.15,193.86Z" style="fill:#263238"></path><path d="M212.92,205.65a10.42,10.42,0,0,1,2.58-.46c.41-.05.79-.13.86-.4a2.19,2.19,0,0,0-.27-1.21l-1.2-3.09c-1.67-4.4-2.88-8-2.7-8.08s1.67,3.45,3.34,7.85c.4,1.08.79,2.12,1.15,3.11a2.29,2.29,0,0,1,.21,1.59,1,1,0,0,1-.67.59,2.6,2.6,0,0,1-.68.1A10,10,0,0,1,212.92,205.65Z" style="fill:#263238"></path><path d="M208.24,206.75c.26,0,.26,1.71,1.74,2.94s3.31,1,3.33,1.27-.41.34-1.19.36a4.35,4.35,0,0,1-2.78-1,3.69,3.69,0,0,1-1.34-2.46C207.93,207.17,208.12,206.74,208.24,206.75Z" style="fill:#263238"></path><path d="M207.56,187.64c-.16.43-1.74.22-3.61.45s-3.37.73-3.62.34c-.11-.18.15-.59.76-1a6.1,6.1,0,0,1,2.68-.94,6.19,6.19,0,0,1,2.83.33C207.28,187.09,207.63,187.43,207.56,187.64Z" style="fill:#263238"></path><path d="M222.19,189c-.28.36-1.37,0-2.69,0s-2.43.24-2.69-.14c-.11-.18.06-.54.55-.89a3.9,3.9,0,0,1,4.34.14C222.16,188.42,222.31,188.79,222.19,189Z" style="fill:#263238"></path><path d="M229.77,172.49a3.82,3.82,0,0,0-1.41-3.41,2.7,2.7,0,0,0-3.51.26,3.15,3.15,0,0,0-2.72-3.83c-1.68-.11-3.12,1.16-4.75,1.61a7.63,7.63,0,0,1-4.83-.56c-1.53-.61-3-1.46-4.51-2a13.22,13.22,0,0,0-16.92,7.77,5.88,5.88,0,0,0-6.23,2.35,9.66,9.66,0,0,0-1.47,6.79,21.94,21.94,0,0,0,1.18,4.64c0,.13,0,.26,0,.4.11,5.69.75,12.36,3.18,12.4C192,199,191,191,191,191c5.19-2,3.26-9.78,4.55-11s4-3.92,14.88,1.63c4.22,2.16,9.83,2.09,12.9,1.39l.27,0h.06l.09,0a9.64,9.64,0,0,0,2.79-1.18,5.47,5.47,0,0,0,2.29-2.56,3,3,0,0,0-.59-3.23A6.66,6.66,0,0,0,229.77,172.49Z" style="fill:#263238"></path><path d="M267.82,276.94,245.3,247.62c-8.28-8.13-12.69-10.56-24.21-11.92-1.88-.22-3.38-.36-4.45-.5a43.93,43.93,0,0,1-26.51,0h0c-4.1.17-7.49,1.43-11,2.1-11,2.1-18.88,10.1-21.07,17.48L140,291.39,163.94,313l9.66-16.52L171,322.68l-2.71,33.16H247c.17-6.91-2-51.71-2.66-65.35l9.47,7.64Z" style="fill:#40B4FF"></path><path d="M246.54,249.85s-.34,0-1-.15a14.62,14.62,0,0,0-2.81-.13,21.16,21.16,0,0,0-9.71,3.19,55.44,55.44,0,0,0-5.86,4.1c-2,1.57-4.18,3.32-6.62,4.93a26.48,26.48,0,0,1-8.31,3.82,16.86,16.86,0,0,1-9.76-.63,31.62,31.62,0,0,1-8.54-4.85c-2.52-1.93-4.79-4-7-5.79a44.18,44.18,0,0,0-6.73-4.67,21.64,21.64,0,0,0-6.67-2.38,13.86,13.86,0,0,0-9.87,1.9,12.48,12.48,0,0,0-2.77,2.56.93.93,0,0,1,.13-.21c.1-.14.23-.35.43-.6a10.48,10.48,0,0,1,2.09-1.92,14,14,0,0,1,10.05-2.09,21.54,21.54,0,0,1,6.81,2.36,44.13,44.13,0,0,1,6.83,4.67c2.27,1.83,4.54,3.86,7,5.76a30.82,30.82,0,0,0,8.4,4.77,16.4,16.4,0,0,0,9.47.62,26.15,26.15,0,0,0,8.17-3.72c2.41-1.58,4.56-3.31,6.62-4.87a56.07,56.07,0,0,1,5.93-4.08,20.88,20.88,0,0,1,9.9-3.07,13.17,13.17,0,0,1,2.82.23c.32.06.56.13.72.17A.75.75,0,0,1,246.54,249.85Z" style="fill:#fafafa"></path><path d="M251.75,278.41a1,1,0,0,1-.22.17c-.19.11-.41.26-.69.44-.61.38-1.51.93-2.69,1.61s-2.65,1.49-4.41,2.31a30.2,30.2,0,0,1-6.22,2.18,22.88,22.88,0,0,1-3.82.5,23.8,23.8,0,0,1-4.17-.23,57.16,57.16,0,0,1-8.89-2.22,53.76,53.76,0,0,0-9.76-2.35,31.4,31.4,0,0,0-10.67.83c-3.61.81-7.05,2-10.44,2.89a50.26,50.26,0,0,1-9.94,1.94A37.66,37.66,0,0,1,163,283.75a37,37,0,0,1-9.87-5.95,30.09,30.09,0,0,1-2.29-2.15l-.56-.6q-.2-.19-.18-.21s.08.05.22.18l.59.55c.51.51,1.31,1.2,2.35,2.07A38.11,38.11,0,0,0,179.79,286a51.56,51.56,0,0,0,9.85-2c3.36-.94,6.81-2.09,10.46-2.91a31.78,31.78,0,0,1,10.84-.83,54.26,54.26,0,0,1,9.84,2.4A57.47,57.47,0,0,0,229.6,285a23.92,23.92,0,0,0,4.09.26,23.3,23.3,0,0,0,3.75-.46,31.22,31.22,0,0,0,6.18-2.08c1.76-.79,3.23-1.58,4.43-2.23l2.73-1.52.72-.4Z" style="fill:#fafafa"></path><path d="M244.09,306.24a9.52,9.52,0,0,0-2.9-.39,11.17,11.17,0,0,0-3.36.68,25.11,25.11,0,0,0-4.1,2,39.59,39.59,0,0,1-4.94,2.67,27.43,27.43,0,0,1-6.21,1.76,47.88,47.88,0,0,1-14.72-.3c-5.17-.79-10-1.88-14.49-2.46a46.1,46.1,0,0,0-11.92-.25,27.82,27.82,0,0,0-7.75,2.06,21.43,21.43,0,0,0-2,1,4,4,0,0,1-.68.34,4.82,4.82,0,0,1,.63-.44,17.39,17.39,0,0,1,1.94-1.05,26.12,26.12,0,0,1,7.79-2.25,45.16,45.16,0,0,1,12,.15c4.5.55,9.37,1.63,14.51,2.42a47.92,47.92,0,0,0,14.57.33,27.43,27.43,0,0,0,6.12-1.68,42.46,42.46,0,0,0,4.92-2.58,22.75,22.75,0,0,1,4.18-2,11,11,0,0,1,3.45-.62,7.5,7.5,0,0,1,2.2.31A3.51,3.51,0,0,1,244.09,306.24Z" style="fill:#fafafa"></path><path d="M173.67,270.12a4.38,4.38,0,0,1,.09,1.07c0,.69.05,1.7.07,2.93,0,2.48,0,5.9,0,9.68s-.06,7.2-.12,9.68c0,1.23-.06,2.24-.09,2.93a4.23,4.23,0,0,1-.11,1.07,4,4,0,0,1-.1-1.07c0-.69-.05-1.7-.07-2.94,0-2.47,0-5.89,0-9.67s.07-7.2.12-9.68c0-1.24.07-2.24.1-2.93A4.14,4.14,0,0,1,173.67,270.12Z" style="fill:#263238"></path><path d="M244.56,311.64a11.76,11.76,0,0,1-.22-1.66c-.1-1.16-.24-2.7-.4-4.55-.32-3.84-.73-9.15-1.14-15s-.77-11.18-1-15c-.1-1.86-.18-3.4-.24-4.56a9.38,9.38,0,0,1,0-1.68,11.76,11.76,0,0,1,.22,1.66c.1,1.16.24,2.7.4,4.55.32,3.84.73,9.15,1.14,15s.77,11.18,1,15c.1,1.85.18,3.39.24,4.55A9.38,9.38,0,0,1,244.56,311.64Z" style="fill:#263238"></path><path d="M246.5,334.87c-.05.05-.89-.71-2.64-1.74a21.58,21.58,0,0,0-8.1-2.59,24.33,24.33,0,0,0-12.41,1.79,40.94,40.94,0,0,0-6.53,3.69,63.13,63.13,0,0,1-7,4.21,20.29,20.29,0,0,1-7.88,2.13,27.52,27.52,0,0,1-7.57-.65,71.14,71.14,0,0,1-12.13-4.14c-3.37-1.4-6.12-2.45-8.06-3.05-1-.31-1.73-.53-2.24-.67a4.44,4.44,0,0,1-.78-.25,5.84,5.84,0,0,1,.8.14c.53.11,1.3.3,2.28.58a84.85,84.85,0,0,1,8.13,2.91,73.52,73.52,0,0,0,12.1,4,27.5,27.5,0,0,0,7.44.61,19.85,19.85,0,0,0,7.68-2.08c4.94-2.46,9-6,13.54-7.88a24.42,24.42,0,0,1,12.64-1.72A21.17,21.17,0,0,1,244,333,15,15,0,0,1,246.5,334.87Z" style="fill:#fafafa"></path></g><g id="freepik--character-3--inject-35"><path d="M248.55,419.07c2.73,1,7.26-10.2,7.71-11.12s1.79-.29,1.34.52c-.65,1.15-7.2,13.48-4.53,14.44,1.48.54,2.19-2.21,2.19-2.21s5.27-12,6.52-11.48-1.6,7.64-2.73,10-.48,3.79.95,3.43c1-.24,4.63-7.32,5.69-9.66s3.89-8.81,5.09-4.49,3.76,7.18,5,7.48a1.41,1.41,0,0,0,1.19-2.38,16,16,0,0,1-2-4,8.15,8.15,0,0,1-.7-3.56c.06-.66.11-1.27.15-1.85l.06,0,.07-1.91c.14-2.31.15-3.57.15-3.57h0l3.68-95.49-20.92-23.28-.51,115.91.08,0a124.21,124.21,0,0,0-8.1,10.84c-3.47,5.7-3,6-2.23,6.31,2,.78,6.49-9.8,6.83-7S246.46,418.34,248.55,419.07Z" style="fill:#a36957"></path><path d="M338.74,431.58s11.34-31.15,3.29-66.16c-5.54-24.05-11.54-32.57-12.9-37.79l.47-33.43,25-7s-3.69-14.44-6-23.68-9.21-14.57-16.1-18.17v-.13l-.6-.17a56.65,56.65,0,0,0-18-5.25l-24.37-.4s-16.89-1.28-29.21,10.14c-4,3.75-8.19,37.29-8.19,37.29l12.19,4.33-.1-4.94s-.51,10,2.81,15.88l7.85,13.82L266,341c-3.22,9.28-9.33,36-4.05,90.58Z" style="fill:#455a64"></path><path d="M313.52,285.86a9,9,0,0,1-1.38,2.65,8.55,8.55,0,0,1-1.82,2.37,8.88,8.88,0,0,1,1.38-2.65A8.34,8.34,0,0,1,313.52,285.86Z" style="fill:#263238"></path><path d="M282.1,294.93a17.37,17.37,0,0,1-2.41-2.28,17.69,17.69,0,0,1-2.33-2.38,7.88,7.88,0,0,1,2.69,2A8.1,8.1,0,0,1,282.1,294.93Z" style="fill:#263238"></path><path d="M295.55,281a11.92,11.92,0,0,1-4.4,2.26c-.07-.13.87-.74,2.08-1.36A6,6,0,0,1,295.55,281Z" style="fill:#263238"></path><path d="M277.72,275.64c-.11.09-1-.73-2-1.85a7.08,7.08,0,0,1-1.57-2.19c.11-.09,1,.74,2,1.85A6.94,6.94,0,0,1,277.72,275.64Z" style="fill:#263238"></path><path d="M260.82,270.74c.09.11-.52.73-1.35,1.38s-1.58,1.08-1.67,1,.52-.73,1.35-1.38S260.73,270.62,260.82,270.74Z" style="fill:#263238"></path><path d="M269.1,255.93c-.11.09-.77-.54-1.48-1.41s-1.19-1.65-1.07-1.74.77.54,1.47,1.41S269.21,255.84,269.1,255.93Z" style="fill:#263238"></path><path d="M324.38,271.74c-.11.09-.8-.59-1.54-1.52s-1.25-1.75-1.14-1.84.8.59,1.55,1.52S324.49,271.65,324.38,271.74Z" style="fill:#263238"></path><path d="M334.6,256.64a4.84,4.84,0,0,1-2.42,1.39,4.78,4.78,0,0,1-2.77.33,17.12,17.12,0,0,1,2.6-.82A16.62,16.62,0,0,1,334.6,256.64Z" style="fill:#263238"></path><path d="M338.46,275.77a9.09,9.09,0,0,1,0-3.12,9.72,9.72,0,0,1,.52-3.08,9.4,9.4,0,0,1,0,3.12A9.88,9.88,0,0,1,338.46,275.77Z" style="fill:#263238"></path><path d="M331.75,286.5a20.45,20.45,0,0,1-3.07-2.27,20.79,20.79,0,0,1-3-2.42,10.92,10.92,0,0,1,3.28,2A10.75,10.75,0,0,1,331.75,286.5Z" style="fill:#263238"></path><path d="M321,305.61a10.11,10.11,0,0,1,.17-3.22,10.26,10.26,0,0,1,.69-3.15,10.47,10.47,0,0,1-.17,3.22A10.26,10.26,0,0,1,321,305.61Z" style="fill:#263238"></path><path d="M304.93,302.76a6.69,6.69,0,0,1-2.74-1.13,6.36,6.36,0,0,1-2.3-1.88,13.17,13.17,0,0,1,2.56,1.43A12.62,12.62,0,0,1,304.93,302.76Z" style="fill:#263238"></path><path d="M285.28,304.08a12.41,12.41,0,0,1-2.7,2.37,12.83,12.83,0,0,1-3,2,12.81,12.81,0,0,1,2.71-2.38A12.64,12.64,0,0,1,285.28,304.08Z" style="fill:#263238"></path><path d="M291.68,320.54a6.76,6.76,0,0,1-1.57-2.13A7,7,0,0,1,289,316a6.76,6.76,0,0,1,1.57,2.13A7,7,0,0,1,291.68,320.54Z" style="fill:#263238"></path><path d="M313.93,318.68a7.37,7.37,0,0,1,.57-2.68,7.77,7.77,0,0,1,1.07-2.53,14.26,14.26,0,0,1-1.64,5.21Z" style="fill:#263238"></path><path d="M281,334.77a19.1,19.1,0,0,1-5.67-2.75,9.78,9.78,0,0,1,2.95,1.14A9.89,9.89,0,0,1,281,334.77Z" style="fill:#263238"></path><path d="M303.44,333a21.92,21.92,0,0,1-.84-6.71,11.37,11.37,0,0,1,.67,3.32A11.19,11.19,0,0,1,303.44,333Z" style="fill:#263238"></path><path d="M320.17,337a17.24,17.24,0,0,1-3.87-4.52c.11-.1,1.07.84,2.13,2.09A8.65,8.65,0,0,1,320.17,337Z" style="fill:#263238"></path><path d="M330.75,352.07a8.73,8.73,0,0,1-1.74,2.35,8.49,8.49,0,0,1-2.12,2,8.36,8.36,0,0,1,1.73-2.36C329.69,352.87,330.64,352,330.75,352.07Z" style="fill:#263238"></path><path d="M307.61,354.25a8.14,8.14,0,0,1,.67-2.85,8.43,8.43,0,0,1,1.17-2.69,8.46,8.46,0,0,1-.67,2.85A8.69,8.69,0,0,1,307.61,354.25Z" style="fill:#263238"></path><path d="M290.1,349.05a27.54,27.54,0,0,1-.32-7.55,14.27,14.27,0,0,1,.42,3.77A14,14,0,0,1,290.1,349.05Z" style="fill:#263238"></path><path d="M273.9,354.42s.13,0,.28.1l-.18.1a18.73,18.73,0,0,1-.62-2.7,9.24,9.24,0,0,1-.27-3.05,9.28,9.28,0,0,1,.78,3,20.2,20.2,0,0,1,.33,2.75v.32l-.17-.22C273.93,354.54,273.88,354.44,273.9,354.42Z" style="fill:#263238"></path><path d="M269.71,374.87a9.79,9.79,0,0,1-2.6-1.81,9.57,9.57,0,0,1-2.26-2.21,19.54,19.54,0,0,1,4.86,4Z" style="fill:#263238"></path><path d="M288.84,366a22.11,22.11,0,0,1-6,3,22.49,22.49,0,0,1,6-3Z" style="fill:#263238"></path><path d="M305.43,370.51a8.43,8.43,0,0,1-2.25-2.68,8.25,8.25,0,0,1-1.44-3.19,20,20,0,0,1,1.88,2.91A20.65,20.65,0,0,1,305.43,370.51Z" style="fill:#263238"></path><path d="M320.7,367.49a6.34,6.34,0,0,1-2.2,5.2c-.12-.1.64-1.12,1.23-2.54S320.55,367.48,320.7,367.49Z" style="fill:#263238"></path><path d="M335.93,376.69a14.44,14.44,0,0,1-.85-2.88,15.21,15.21,0,0,1-.74-2.92,6.36,6.36,0,0,1,1.24,2.78A6.5,6.5,0,0,1,335.93,376.69Z" style="fill:#263238"></path><path d="M330.7,390.69a11.26,11.26,0,0,1-2.9-1.92,11.45,11.45,0,0,1-2.59-2.33,23,23,0,0,1,5.49,4.25Z" style="fill:#263238"></path><path d="M309,389a14.27,14.27,0,0,1,.88-2.7,14,14,0,0,1,1-2.67A8.54,8.54,0,0,1,309,389Z" style="fill:#263238"></path><path d="M294.87,382.93c.09.12-.82.93-2,1.81a7.49,7.49,0,0,1-2.33,1.39c-.09-.12.82-.93,2-1.81A7.49,7.49,0,0,1,294.87,382.93Z" style="fill:#263238"></path><path d="M279.43,391a11.41,11.41,0,0,1-.6-3.33,11.16,11.16,0,0,1-.08-3.38,11.41,11.41,0,0,1,.6,3.33A11.16,11.16,0,0,1,279.43,391Z" style="fill:#263238"></path><path d="M269.17,398c-.12.08-.92-.82-1.81-2a7,7,0,0,1-1.38-2.33c.12-.08.92.82,1.81,2A7,7,0,0,1,269.17,398Z" style="fill:#263238"></path><path d="M275.9,414.26a6.29,6.29,0,0,1-2.2,2.21,6.19,6.19,0,0,1-2.81,1.35A18.66,18.66,0,0,1,273.4,416,19.89,19.89,0,0,1,275.9,414.26Z" style="fill:#263238"></path><path d="M290.3,409.15a13.2,13.2,0,0,1-2.22-2.52,13.44,13.44,0,0,1-2-2.72,16.15,16.15,0,0,1,4.19,5.24Z" style="fill:#263238"></path><path d="M308.11,401.89a16.07,16.07,0,0,1-5.7.23,8,8,0,0,1,2.84-.38A8.19,8.19,0,0,1,308.11,401.89Z" style="fill:#263238"></path><path d="M324.28,409.79a13.82,13.82,0,0,1-1.71-3.35,14.25,14.25,0,0,1-1.22-3.56,13.77,13.77,0,0,1,1.7,3.35A13.92,13.92,0,0,1,324.28,409.79Z" style="fill:#263238"></path><path d="M306.26,421.82a25.1,25.1,0,0,1-5.35-4.87,12.76,12.76,0,0,1,2.85,2.24A12.9,12.9,0,0,1,306.26,421.82Z" style="fill:#263238"></path><path d="M326.56,420.48c.1.09-.63,1.06-1.89,1.82a4.24,4.24,0,0,1-2.48.86,16.06,16.06,0,0,1,2.21-1.3A15.67,15.67,0,0,1,326.56,420.48Z" style="fill:#263238"></path><path d="M338.38,397a25.94,25.94,0,0,1-1.47,7.19,25.94,25.94,0,0,1,1.47-7.19Z" style="fill:#263238"></path><path d="M283.46,354.74c-.42-2.54,10-4.78,10.92-5s.53-1.52-.25-1.25c-1.11.39-12.9,4.22-13.34,1.74-.24-1.37,2.27-1.58,2.27-1.58s11.3-2.77,11.06-3.93-6.94.22-9.16.85-3.38-.16-2.85-1.37c.36-.82,7.12-2.91,9.33-3.49s8.31-2,4.71-3.76-5.7-4.4-5.77-5.52a1.25,1.25,0,0,1,2.26-.67,14.49,14.49,0,0,0,3.23,2.39,9.54,9.54,0,0,0,3,1.16c1.24.24,2.3.4,3.2.51,5.86-2.36,22.12-9.6,33.11-21.16,2-2.09-4.62-19.69-4.62-19.69l21.69-6.1s2.34,6.82,5.1,18.8c6,26.17-51.54,44-51.54,44l0,0a119.25,119.25,0,0,1-11.45,5.8c-5.52,2.17-5.72,1.67-5.86,1-.39-1.85,9.57-4.17,7.14-4.91S283.78,356.68,283.46,354.74Z" style="fill:#b78876"></path><path d="M282.25,181.86a16.59,16.59,0,0,0-1.73,9.29c.23,2.08.8,4.38-.36,6.13-1.41,2.11-4.71,2.29-6.09,4.43-2,3.08,1.52,7.43-.08,10.73-1.06,2.19-3.83,2.84-5.71,4.37a7.71,7.71,0,0,0-1.76,9.24c1.37,2.65,4,4.32,6.59,5.85l5.84,3.52a5.46,5.46,0,0,0,3.4,1.12c2.15-.3,3.14-2.92,5.08-3.89,2.41-1.19,5.2.47,7.87.64a7,7,0,0,0,7.45-7.45" style="fill:#263238"></path><path d="M314.31,239.82l5.38-48.09a32.62,32.62,0,0,0-35.3-11.83s-4.23,24.71-3.58,35.66C281.5,227,290,229.32,290,229.32s-.36,4.59-.83,9.88a79.18,79.18,0,0,0-9.9,1c-1,.17.36,31.1,20.93,32.28,19.47,1.12,21.06-31.34,21.06-31.34A50.36,50.36,0,0,0,314.31,239.82Z" style="fill:#b78876"></path><path d="M283.48,199.4a1.45,1.45,0,0,0,1.26,1.59,1.38,1.38,0,0,0,1.62-1.15,1.47,1.47,0,0,0-1.25-1.61A1.4,1.4,0,0,0,283.48,199.4Z" style="fill:#263238"></path><path d="M283.49,197.8c.16.21,1.34-.5,2.9-.34s2.62,1,2.81.88-.06-.44-.52-.85a4,4,0,0,0-2.23-.94,3.85,3.85,0,0,0-2.33.51C283.61,197.38,283.41,197.71,283.49,197.8Z" style="fill:#263238"></path><path d="M299.7,201.5a1.46,1.46,0,0,0,1.25,1.6,1.4,1.4,0,0,0,1.63-1.16,1.46,1.46,0,0,0-1.25-1.6A1.4,1.4,0,0,0,299.7,201.5Z" style="fill:#263238"></path><path d="M299.71,200c.16.2,1.34-.5,2.89-.34s2.63,1.05,2.82.87-.06-.43-.52-.84a4,4,0,0,0-2.23-.94,3.83,3.83,0,0,0-2.33.51C299.82,199.55,299.63,199.87,299.71,200Z" style="fill:#263238"></path><path d="M292.91,211a10.58,10.58,0,0,0-2.49-.71c-.39-.08-.76-.2-.8-.47a2,2,0,0,1,.38-1.16l1.47-2.92c2.07-4.15,3.6-7.59,3.43-7.67s-2,3.22-4,7.38c-.5,1-1,2-1.43,2.94a2.26,2.26,0,0,0-.36,1.54,1,1,0,0,0,.59.65,2.91,2.91,0,0,0,.67.16A10.88,10.88,0,0,0,292.91,211Z" style="fill:#263238"></path><path d="M290,229.32a28.94,28.94,0,0,0,15.54-2.54s-4.44,7.4-15.65,5.23Z" style="fill:#a36957"></path><path d="M293.2,214.8a2.81,2.81,0,0,1,2.62-.8,2.6,2.6,0,0,1,1.68,1.13,1.65,1.65,0,0,1-.06,1.87,1.91,1.91,0,0,1-2.1.32,6,6,0,0,1-1.87-1.39,1.51,1.51,0,0,1-.4-.51.51.51,0,0,1,.06-.58" style="fill:#a36957"></path><path d="M297.39,212.51c-.25,0-.42,1.65-2,2.71s-3.35.69-3.38.93.36.37,1.12.46a4.22,4.22,0,0,0,2.82-.68,3.64,3.64,0,0,0,1.56-2.28C297.66,213,297.51,212.51,297.39,212.51Z" style="fill:#263238"></path><path d="M314.32,203.79a6.68,6.68,0,0,1,3.61.59,4.74,4.74,0,0,1,2.43,2.68,4.93,4.93,0,0,1-.33,3.61,8.37,8.37,0,0,1-2.35,2.84,5.71,5.71,0,0,1-2.34,1.24,2.71,2.71,0,0,1-2.48-.64" style="fill:#ffbe9d"></path><path d="M314.26,211.18c-.14,0,.32.81,1.45.63a2.39,2.39,0,0,0,1.48-1.06,5.25,5.25,0,0,0,.8-1.95,3.18,3.18,0,0,0-.3-2.18,2.12,2.12,0,0,0-1.5-1.09c-1.13-.14-1.56.62-1.43.65s.56-.26,1.29,0a2.05,2.05,0,0,1,1,2.46c-.26,1.23-.85,2.32-1.54,2.54S314.35,211.09,314.26,211.18Z" style="fill:#eb996e"></path><path d="M287.34,177.11a8.24,8.24,0,0,0,2.76,9.49c2.91,2.09,6.77,2,10.29,2.61s7.45,2.72,7.69,6.29c.14,2.16-1.15,4.4-.37,6.42.91,2.36,4.14,3.06,5.28,5.32,1.83,3.64-2.95,7.63-2.27,11.64.4,2.38,2.65,4.11,3.14,6.47.7,3.37-2.24,7.35-.06,10,1.66,2,4.94,1.36,7.27.13s4.84-2.89,7.38-2.2c1.53.41,2.71,1.61,4.12,2.34A7.32,7.32,0,0,0,343,227c-.62-2-2.08-3.68-3.3-5.42s-2.26-3.82-1.88-5.91c.3-1.6,1.39-2.92,2.21-4.32s1.39-3.21.6-4.63c-1.39-2.5-5.55-1.81-7.33-4-2.46-3.07,1.91-7.81.26-11.37-1.87-4-9.22-2.46-11.1-6.49-.68-1.47-.33-3.21-.67-4.79-.78-3.62-4.88-5.54-8.57-5.77s-7.43.67-11.09.13c-2-.3-3.92-1-5.9-1.44a9.14,9.14,0,0,0-6,.4c-1.81.91-3.11,3.06-2.51,5" style="fill:#263238"></path><path d="M289.85,184.73a13.87,13.87,0,0,1-9.33,7.86,34,34,0,0,1,.05-8.38,13.35,13.35,0,0,1,3.6-7.44,8.32,8.32,0,0,1,7.71-2.26" style="fill:#263238"></path><path d="M335.68,235.21a1.94,1.94,0,0,0,.57-.67,2.67,2.67,0,0,0-.21-2.43,3.52,3.52,0,0,0-1.33-1.22,10.59,10.59,0,0,0-2-.84,11.68,11.68,0,0,1-2.37-1,3.56,3.56,0,0,1-1.8-2.22,4.53,4.53,0,0,1,.6-3.1c.49-1,1.14-1.93,1.57-3a7.9,7.9,0,0,0-.77-7.07A7.37,7.37,0,0,0,327,211c-1.22-.61-2.61-.93-3.95-1.52a5.69,5.69,0,0,1-1.86-1.23,3.8,3.8,0,0,1-1-2,16,16,0,0,1,.41-4.53,8.46,8.46,0,0,0-.58-4.35,11.29,11.29,0,0,0-2.39-3.58,16.46,16.46,0,0,0-7.08-4,60.89,60.89,0,0,0-7.32-1.63,48.36,48.36,0,0,1-6.38-1.5,18.26,18.26,0,0,1-4.87-2.37,12.92,12.92,0,0,1-3-2.8,9.47,9.47,0,0,1-1.3-2.23,6.65,6.65,0,0,1-.29-.85s.11.29.35.82a10.17,10.17,0,0,0,1.34,2.18,15.79,15.79,0,0,0,7.82,5,49.1,49.1,0,0,0,6.36,1.46,58.65,58.65,0,0,1,7.36,1.6,17,17,0,0,1,7.22,4.09,11.69,11.69,0,0,1,2.46,3.69,8.74,8.74,0,0,1,.6,4.51,15.89,15.89,0,0,0-.41,4.44,3.47,3.47,0,0,0,.93,1.87,5.51,5.51,0,0,0,1.75,1.16c1.3.57,2.69.9,4,1.53a7.62,7.62,0,0,1,3,2.79,8.17,8.17,0,0,1,.77,7.33c-.45,1.11-1.11,2.05-1.6,3a4.35,4.35,0,0,0-.6,2.93,3.36,3.36,0,0,0,1.69,2.09,10.67,10.67,0,0,0,2.32,1,11.39,11.39,0,0,1,2.05.88,3.63,3.63,0,0,1,1.36,1.3,2.66,2.66,0,0,1,.15,2.52A1.4,1.4,0,0,1,335.68,235.21Z" style="fill:#455a64"></path><path d="M333,200.24l-.14,0-.42.09c-.36.06-.9.16-1.61.23a9,9,0,0,1-2.59-.1,5.14,5.14,0,0,1-2.92-1.76,10.07,10.07,0,0,1-1.85-3.72,43.13,43.13,0,0,0-1.35-4.53,10.78,10.78,0,0,0-3.1-4.07,16.22,16.22,0,0,0-4.86-2.66c-3.63-1.27-7.34-1.43-10.66-1.74-1.66-.14-3.25-.3-4.72-.55a26.35,26.35,0,0,1-4-1,15.29,15.29,0,0,1-5.22-2.91,9.08,9.08,0,0,1-1.49-1.62l.11.1.28.31a14.08,14.08,0,0,0,1.18,1.11,15.4,15.4,0,0,0,5.22,2.79,25.66,25.66,0,0,0,4,1c1.46.24,3,.39,4.71.53,3.31.29,7.05.43,10.74,1.72a16.21,16.21,0,0,1,5,2.73,10.8,10.8,0,0,1,3.18,4.2,42.71,42.71,0,0,1,1.33,4.56,9.94,9.94,0,0,0,1.76,3.65,5,5,0,0,0,2.79,1.73,9.22,9.22,0,0,0,2.54.15c.7-.05,1.25-.12,1.62-.17S333,200.23,333,200.24Z" style="fill:#455a64"></path><path d="M273.4,230.44s-.08,0-.22-.08a3.47,3.47,0,0,1-.6-.31,6,6,0,0,1-1.8-1.71,6.59,6.59,0,0,1-1.23-3.47,6.36,6.36,0,0,1,1.43-4.25,6.65,6.65,0,0,1,3.83-2.35,22.06,22.06,0,0,0,3.59-.51,2.76,2.76,0,0,0,1.68-1.58,2.44,2.44,0,0,0,.09-.88.62.62,0,0,1,.07.23,1.66,1.66,0,0,1,0,.68,2.85,2.85,0,0,1-1.72,1.77,20.35,20.35,0,0,1-3.61.58,6.43,6.43,0,0,0-3.64,2.26,6.16,6.16,0,0,0-1.38,4,6.45,6.45,0,0,0,1.12,3.35,6.3,6.3,0,0,0,1.68,1.73C273.12,230.28,273.41,230.41,273.4,230.44Z" style="fill:#455a64"></path><path d="M316.68,179a3.47,3.47,0,0,1,.15.69c.08.45.21,1.11.33,2,.25,1.72.55,4.22.72,7.32a70.9,70.9,0,0,1-.23,10.92,52.66,52.66,0,0,1-2.94,13,36.77,36.77,0,0,1-6.7,11.56,21.17,21.17,0,0,1-4.42,3.87,14.91,14.91,0,0,1-4.75,1.9,15.81,15.81,0,0,1-7.35-.17,11.51,11.51,0,0,1-1.89-.66,2.72,2.72,0,0,1-.63-.31s.89.38,2.57.77a16.11,16.11,0,0,0,7.22,0,14.49,14.49,0,0,0,4.6-1.91,21.28,21.28,0,0,0,4.29-3.81,36.78,36.78,0,0,0,6.57-11.44,52.64,52.64,0,0,0,2.95-12.91,75.38,75.38,0,0,0,.34-10.85c-.12-3.09-.36-5.59-.55-7.31-.1-.82-.17-1.48-.23-2A3.32,3.32,0,0,1,316.68,179Z" style="fill:#455a64"></path><path d="M287,174.05s25.51-26.68,27-23.37,4.15,30,4.15,30S294.34,181.63,287,174.05Z" style="fill:#40B4FF"></path><path d="M297.89,167.1c-.37.12-.63,1.1-.3,1.69a1.27,1.27,0,0,0,1.77.37,1.31,1.31,0,0,0,.22-1.81,1.35,1.35,0,0,0-1.83-.15" style="fill:#fafafa"></path><path d="M304.24,174.07c-.37.12-.64,1.1-.3,1.7a1.26,1.26,0,0,0,1.77.37,1.3,1.3,0,0,0,.21-1.81,1.35,1.35,0,0,0-1.83-.16" style="fill:#fafafa"></path><path d="M311.5,167.88c-.37.11-.64,1.1-.3,1.69a1.26,1.26,0,0,0,1.77.37,1.3,1.3,0,0,0,.21-1.81,1.35,1.35,0,0,0-1.83-.15" style="fill:#fafafa"></path><path d="M311.29,154c-.37.12-.63,1.1-.3,1.69a1.25,1.25,0,0,0,1.77.37,1.3,1.3,0,0,0,.22-1.8,1.34,1.34,0,0,0-1.83-.16" style="fill:#fafafa"></path><path d="M305.13,158.71c-.37.12-.63,1.11-.3,1.7a1.27,1.27,0,0,0,1.77.37,1.31,1.31,0,0,0,.22-1.81,1.35,1.35,0,0,0-1.83-.15" style="fill:#fafafa"></path><path d="M296.28,174.78c-.23.08-.4.7-.19,1.07a.8.8,0,0,0,1.12.24.82.82,0,0,0,.14-1.14.84.84,0,0,0-1.16-.1" style="fill:#fafafa"></path><path d="M312.54,176.77c-.24.08-.41.7-.19,1.07a.79.79,0,0,0,1.11.24.83.83,0,0,0,.14-1.15.85.85,0,0,0-1.16-.09" style="fill:#fafafa"></path><path d="M292.8,171.19c-.23.08-.4.7-.19,1.07a.8.8,0,0,0,1.12.23.82.82,0,0,0,.14-1.14.86.86,0,0,0-1.16-.1" style="fill:#fafafa"></path><path d="M304.2,167.48c-.23.08-.4.7-.19,1.07a.8.8,0,0,0,1.12.24.83.83,0,0,0,.14-1.15.85.85,0,0,0-1.16-.09" style="fill:#fafafa"></path><path d="M311.78,161.17c-.24.07-.41.69-.19,1.07a.8.8,0,0,0,1.12.23.82.82,0,0,0,.13-1.14.84.84,0,0,0-1.15-.1" style="fill:#fafafa"></path></g><g id="freepik--character-4--inject-35"><polygon points="382.48 355.84 381.74 431.58 423.09 431.58 423.43 385.23 435.85 431.58 473.75 431.45 457.69 350.3 382.48 355.84" style="fill:#455a64"></polygon><path d="M414.15,359.2a25.72,25.72,0,0,0,.46,4.27c.38,2.63.95,6.24,1.62,10.23a40.84,40.84,0,0,0,1.15,5.63,7.94,7.94,0,0,0,2.63,4,6.16,6.16,0,0,0,2.92,1.3,2.33,2.33,0,0,0,1.17,0,7.24,7.24,0,0,1-6.1-5.44,48.94,48.94,0,0,1-1.07-5.55c-.67-4-1.32-7.59-1.82-10.19A24.9,24.9,0,0,0,414.15,359.2Z" style="fill:#263238"></path><path d="M422.53,360.44c-.09.07.24.48.05,1.17a1.36,1.36,0,0,1-.67.86,1.21,1.21,0,0,1-1.59-1.39,1.35,1.35,0,0,1,.77-.78c.65-.28,1.11,0,1.16-.1s-.37-.59-1.31-.38a1.79,1.79,0,0,0-1.24,1,1.73,1.73,0,0,0,.54,1.92,1.71,1.71,0,0,0,2,.28,1.76,1.76,0,0,0,.86-1.35C423.16,360.74,422.56,360.36,422.53,360.44Z" style="fill:#263238"></path><path d="M444.16,364.14c.17.06.76-1.59.53-3.69s-1.14-3.6-1.3-3.5.39,1.61.59,3.57S444,364.1,444.16,364.14Z" style="fill:#263238"></path><path d="M439.32,363.83c.17.05.73-1.64.57-3.81s-.93-3.76-1.1-3.69.26,1.7.4,3.74S439.11,363.79,439.32,363.83Z" style="fill:#263238"></path><path d="M397.69,364.89c.2-.06-.12-1.77-.23-3.89s0-3.87-.17-3.9-.66,1.72-.54,3.93S397.51,364.94,397.69,364.89Z" style="fill:#263238"></path><path d="M392.43,364.6c.19-.09-.43-1.78-.57-4s.22-3.93,0-4-.9,1.72-.73,4S392.27,364.69,392.43,364.6Z" style="fill:#263238"></path><path d="M469.07,255.52,458.18,299l-2,24.43,2.71,33.16h-78.7c-.16-6.91,1.61-42.68,2.3-56.32l.12-52.63c8.27-8.13,11.94-9.83,23.46-11.2,1.88-.22,3.37-.36,4.45-.49a44,44,0,0,0,26.51,0h0c4.1.17,7.49,1.43,11,2.1,11,2.11,18.87,10.1,21.07,17.48,0,0,19.41,54.29-.33,69.52h0l-13.4-25.56Z" style="fill:#263238"></path><path d="M391.34,240.64a30,30,0,0,0-13,13.7c-2.68,6.13-6.62,35.66-6.62,35.66l-5,9.58A16.11,16.11,0,0,0,365,307v1.46a16.17,16.17,0,0,0,3.62,10.19h0a16.16,16.16,0,0,0,11.1,5.89c5,.45,11,.64,12.23-.82,2.26-2.58,5.64-9.52,5.64-9.52l-14.45-7.68L389.35,295Z" style="fill:#263238"></path><path d="M388.76,296.16c-.14,0,.39-9.46,1.19-21.11s1.56-21.08,1.7-21.07-.39,9.46-1.18,21.11S388.91,296.17,388.76,296.16Z" style="fill:#455a64"></path><path d="M437.58,200.93A2.48,2.48,0,0,0,441,204c1.67-.76,2-3,1.73-4.82s-.78-3.77.05-5.41c.64-1.25,1.92-2,2.94-3a7.92,7.92,0,0,0,2.49-6.61,6.65,6.65,0,0,0-4.35-5.43c-2.37-.77-5.36-.16-7.07-2-1.24-1.32-1.23-3.39-2.17-4.93-1.45-2.4-4.72-2.91-7.52-2.65s-5.66,1-8.35.23c-2.25-.66-4.05-2.33-6.13-3.39a12.29,12.29,0,0,0-16.71,16.16c.78,1.65,2.28,6.39,7.49,6.55" style="fill:#263238"></path><path d="M439.27,181.46l-.19,3.74-2.48,55.94c-.29,6.49-6.1,11.42-13.05,11.06h0c-7-.37-12.56-6-12.38-12.55.19-6.89.27-14.14.27-14.14s-8.83-1.75-10.31-13.39c-.74-5.79-.16-15.22.57-22.92a12.24,12.24,0,0,1,13.84-11Z" style="fill:#b78876"></path><path d="M403.86,195.84a1.49,1.49,0,0,0,1.39,1.55,1.42,1.42,0,0,0,1.57-1.3,1.48,1.48,0,0,0-1.38-1.54A1.43,1.43,0,0,0,403.86,195.84Z" style="fill:#263238"></path><path d="M403.59,194.17c.18.2,1.33-.6,2.93-.54s2.74.89,2.92.69-.09-.43-.58-.82a4.11,4.11,0,0,0-2.34-.8,3.92,3.92,0,0,0-2.34.67C403.68,193.74,403.5,194.08,403.59,194.17Z" style="fill:#263238"></path><path d="M419.86,196.34a1.49,1.49,0,0,0,1.39,1.54,1.42,1.42,0,0,0,1.57-1.29,1.49,1.49,0,0,0-1.38-1.55A1.43,1.43,0,0,0,419.86,196.34Z" style="fill:#263238"></path><path d="M419.29,195c.18.2,1.33-.59,2.93-.54s2.74.89,2.92.7-.08-.44-.58-.83a4.11,4.11,0,0,0-2.34-.8,3.94,3.94,0,0,0-2.33.68C419.38,194.52,419.21,194.86,419.29,195Z" style="fill:#263238"></path><path d="M413.13,206.63a10.29,10.29,0,0,0-2.58-.55c-.41-.06-.79-.15-.86-.43a2.15,2.15,0,0,1,.31-1.2l1.31-3.07c1.81-4.37,3.14-8,3-8s-1.79,3.42-3.6,7.79l-1.26,3.09a2.42,2.42,0,0,0-.26,1.6,1,1,0,0,0,.66.62,3.07,3.07,0,0,0,.69.11A10.47,10.47,0,0,0,413.13,206.63Z" style="fill:#263238"></path><path d="M411.44,225.51a29.51,29.51,0,0,0,15.64-3.66s-4,7.84-15.57,6.39Z" style="fill:#a36957"></path><path d="M417.8,207.88c-.26,0-.32,1.71-1.84,2.9s-3.37.93-3.39,1.17.4.35,1.18.4a4.32,4.32,0,0,0,2.83-.89A3.73,3.73,0,0,0,418,209C418.1,208.31,417.92,207.87,417.8,207.88Z" style="fill:#263238"></path><path d="M419.07,188.68c.15.44,1.75.28,3.62.56s3.37.85,3.63.46c.11-.18-.14-.6-.74-1a6.39,6.39,0,0,0-5.51-.78C419.37,188.14,419,188.47,419.07,188.68Z" style="fill:#263238"></path><path d="M404.32,189.56c.27.38,1.38,0,2.71.06s2.44.32,2.71-.06c.12-.18-.05-.55-.53-.91A3.79,3.79,0,0,0,407,188a3.71,3.71,0,0,0-2.18.67C404.37,189,404.2,189.38,404.32,189.56Z" style="fill:#263238"></path><path d="M401.47,184.05s5.82,3.28,13.87-.13c5.28-2.24,11.33-3.12,12.59-2s1.2,6.41,6.18,8.26c0,0-1,10.06,3.06,9.95s4.05-20.35,4.05-20.35l-11.07-.93-10.6-2.7-10.19.79-7.95,1.66Z" style="fill:#263238"></path><path d="M441.58,176.92c.06-.16-.88-.54-2-.17s-1.66,1.22-1.52,1.31.76-.44,1.71-.74S441.54,177.09,441.58,176.92Z" style="fill:#263238"></path><path d="M438.35,173.4c-.19,0-.16,1.2-.41,2.56s-.87,2.33-.73,2.44,1-.8,1.32-2.33A4,4,0,0,0,438.35,173.4Z" style="fill:#263238"></path><path d="M436.56,196c.18-.08,7.27-2.24,7.12,5s-7.41,5.61-7.42,5.4S436.56,196,436.56,196Z" style="fill:#b78876"></path><path d="M438.54,203.7s.12.09.33.19a1.25,1.25,0,0,0,.95,0,3.12,3.12,0,0,0,1.5-2.78,4.06,4.06,0,0,0-.31-1.81,1.44,1.44,0,0,0-.93-1,.64.64,0,0,0-.76.33c-.1.2-.06.34-.1.36s-.15-.13-.08-.43a.83.83,0,0,1,.29-.45,1,1,0,0,1,.7-.17,1.77,1.77,0,0,1,1.3,1.16,4.32,4.32,0,0,1,.4,2c-.08,1.46-.85,2.81-1.91,3.09a1.34,1.34,0,0,1-1.15-.21C438.55,203.87,438.51,203.71,438.54,203.7Z" style="fill:#a36957"></path><path d="M405.91,172.24a2.06,2.06,0,0,0-.72-.35,3.42,3.42,0,0,0-2.29.21,2.82,2.82,0,0,0-1.74,3.05,3.67,3.67,0,0,0,1,2.09,4.88,4.88,0,0,0,2.28,1.24,6.82,6.82,0,0,0,5.66-1.26,8.06,8.06,0,0,0,2.23-2.44,4.69,4.69,0,0,0,.6-3.48,4.51,4.51,0,0,0-2.46-2.78,8,8,0,0,0-3.77-.77,9.43,9.43,0,0,0-7,3.65,7.31,7.31,0,0,0-1.5,3.82,7.84,7.84,0,0,0,.72,3.93,8.42,8.42,0,0,0,2.37,3,9.89,9.89,0,0,0,3.26,1.7,14.15,14.15,0,0,0,6.71.34c2.06-.59,3.79-1.43,5.48-2a22.72,22.72,0,0,1,4.61-1.05,15.48,15.48,0,0,1,3.57,0,30.12,30.12,0,0,1,3,.69,4,4,0,0,0-.74-.31A11.38,11.38,0,0,0,425,181a14.84,14.84,0,0,0-3.63-.13,21.85,21.85,0,0,0-4.71,1c-1.7.5-3.5,1.34-5.46,1.87a13.57,13.57,0,0,1-6.44-.38,8.43,8.43,0,0,1-5.28-4.45,6.87,6.87,0,0,1,.73-7.16,8.91,8.91,0,0,1,6.56-3.44,7.41,7.41,0,0,1,3.5.71,3.94,3.94,0,0,1,2.19,2.41,4.16,4.16,0,0,1-.52,3.1,7.55,7.55,0,0,1-2.08,2.3,6.37,6.37,0,0,1-5.27,1.25,4.45,4.45,0,0,1-2.12-1.1,3.37,3.37,0,0,1-1-1.87,2.73,2.73,0,0,1,.34-1.79,2.92,2.92,0,0,1,1.18-1,3.35,3.35,0,0,1,2.16-.29C405.66,172.12,405.9,172.27,405.91,172.24Z" style="fill:#455a64"></path><path d="M468.33,309.47,445.56,283l-12.71,4.52,14.62,32.11a13.81,13.81,0,0,0,3.48,4.68h0a13.89,13.89,0,0,0,15.34,2l2.45-1.22Z" style="fill:#263238"></path><path d="M421.75,272.26l.87-.36a17.3,17.3,0,0,1,14,.37h0a23.78,23.78,0,0,1,9,7.48l4.51,6.22-8.94,9.34-2.64-6.88s-5.24,4.25-5.79,3.52a9.25,9.25,0,0,1-.95-2.61l3.78-3.16-7-.34L420,278.9l5.51-4.18L421,275Z" style="fill:#b78876"></path><rect x="387.25" y="276.39" width="53.6" height="30.63" rx="4.13" style="fill:#40B4FF"></rect><path d="M440.93,286.46c0,.14-12.11.26-27,.26s-27.05-.12-27.05-.26,12.11-.26,27.05-.26S440.93,286.31,440.93,286.46Z" style="fill:#e0e0e0"></path><path d="M384.4,297.68h0a3.39,3.39,0,0,1,3.17,2.17c.53,1.38,1.31,3,2.17,3.46,1.59.86,4.33,1.56,5.77.85s7.22-5.9,8.23-5.33,1.88,1.88.87,3-6.35,4.62-5.34,5.78,12.27-3.93,14-3.48,2.74,1.51,1.73,2.21-8.66,3.58-9.09,4.59c0,0,11.54-3,12-2.31s1.15,1.88,0,2.31-11.12,3-12,3.46a20.65,20.65,0,0,1-4.45,1.3,47.57,47.57,0,0,0-4.66,1.48,10.21,10.21,0,0,1-7.18-.19l-1.17-.48a4.57,4.57,0,0,1-2.84-4.52l.23-3.94-1.26-3.25Z" style="fill:#b78876"></path><path d="M413.58,304.66c-.14,0-.26-6.34-.26-14.17s.12-14.17.26-14.17.26,6.34.26,14.17S413.73,304.66,413.58,304.66Z" style="fill:#e0e0e0"></path><path d="M413.28,276.27a2.2,2.2,0,0,1-.47.22,10,10,0,0,1-1.4.42,12.56,12.56,0,0,1-5.4,0,14.48,14.48,0,0,1-1.74-.5,6.11,6.11,0,0,1-1.76-.93,2.33,2.33,0,0,1-.92-2,1.58,1.58,0,0,1,.55-1.1,2.2,2.2,0,0,1,1.15-.45,13.13,13.13,0,0,1,9.29,3.15l1,.85-1.25-.41-.86-.3a15.48,15.48,0,0,1-4.56-2.74,9.39,9.39,0,0,1-1.75-1.87,3.27,3.27,0,0,1-.56-2.46,2.29,2.29,0,0,1,1.66-1.74,3.37,3.37,0,0,1,2.25.19,7.88,7.88,0,0,1,3,2.47,9,9,0,0,1,1.81,5.29,7.71,7.71,0,0,1-.14,1.53,1.73,1.73,0,0,1-.15.51,18.43,18.43,0,0,0,.09-2,9.08,9.08,0,0,0-1.9-5.07,7.57,7.57,0,0,0-2.91-2.3,2.94,2.94,0,0,0-2-.15,1.82,1.82,0,0,0-1.32,1.39,2.8,2.8,0,0,0,.5,2.09,9.21,9.21,0,0,0,1.67,1.76,15.26,15.26,0,0,0,4.41,2.64l.84.3-.25.44a12.84,12.84,0,0,0-8.89-3.07,1.28,1.28,0,0,0-1.31,1.12,1.91,1.91,0,0,0,.74,1.63,5.64,5.64,0,0,0,1.63.89,11.82,11.82,0,0,0,1.68.51,13.05,13.05,0,0,0,5.28.13C412.61,276.49,413.26,276.22,413.28,276.27Z" style="fill:#e0e0e0"></path><path d="M411.43,276.77a1.44,1.44,0,0,1,.48,0l1.38-.06,5.15-.14,3.61-.07a7.53,7.53,0,0,0,2-.16,1,1,0,0,0,.66-.52.77.77,0,0,0-.22-.79,3.68,3.68,0,0,0-1.93-.89,6.89,6.89,0,0,0-2.31,0,13.85,13.85,0,0,0-4.61,2l-.2-.46a13.89,13.89,0,0,0,6.64-4.1,1.48,1.48,0,0,0,.37-1.42,1.52,1.52,0,0,0-1.16-.86,4.3,4.3,0,0,0-2.92,1.2,9.75,9.75,0,0,0-3.41,5.18l-.44-.17a19.65,19.65,0,0,0,1.53-3.74c.32-1.22.72-2.48.34-3.5a1.22,1.22,0,0,0-1.12-.81A1.79,1.79,0,0,0,414,268a4.55,4.55,0,0,0-.95,2.48,18.35,18.35,0,0,0-.19,3.91c.05.91.13,1.4.1,1.41s-.05-.12-.1-.35-.1-.59-.15-1a16.22,16.22,0,0,1,.06-4,4.76,4.76,0,0,1,1-2.68,2.18,2.18,0,0,1,1.53-.7,1.62,1.62,0,0,1,1.49,1,3.67,3.67,0,0,1,.13,1.89,16.31,16.31,0,0,1-.42,1.88,19.82,19.82,0,0,1-1.53,3.84l-.93,1.75.49-1.92A10.22,10.22,0,0,1,418,270a8.44,8.44,0,0,1,1.49-1,3.16,3.16,0,0,1,1.84-.35,1.81,1.81,0,0,1,1.12,3.1,14.32,14.32,0,0,1-6.92,4.28l-1.82.5,1.62-1a14.05,14.05,0,0,1,4.79-2,7.37,7.37,0,0,1,2.48,0,4,4,0,0,1,2.16,1.05,1.21,1.21,0,0,1,.3,1.22,1.35,1.35,0,0,1-.94.77,7.54,7.54,0,0,1-2.08.15l-3.61,0-5.15,0-1.38,0Z" style="fill:#e0e0e0"></path><path d="M464.66,304.45c-.12.09-3.28-4-7.06-9.08s-6.75-9.32-6.64-9.4,3.28,4,7.06,9.09S464.77,304.37,464.66,304.45Z" style="fill:#455a64"></path><path d="M466.44,299.79c-.11.11-1.57-1.25-3.75-2.31s-4.15-1.38-4.12-1.54a8.39,8.39,0,0,1,4.35,1.07A8.56,8.56,0,0,1,466.44,299.79Z" style="fill:#455a64"></path><path d="M449.26,285.26a11.85,11.85,0,0,1,0-1.8c0-1.24.1-2.89.17-4.89.17-4.13.45-9.83.78-16.12.17-3.15.34-6.14.49-8.88a31.73,31.73,0,0,1,.86-7.24,7.57,7.57,0,0,1,2.76-4,4.39,4.39,0,0,1,1.19-.62,1.13,1.13,0,0,1,.46-.11,8.17,8.17,0,0,0-1.53.89,7.62,7.62,0,0,0-2.53,4,33.38,33.38,0,0,0-.73,7.16c-.14,2.73-.29,5.73-.45,8.87-.33,6.3-.67,12-.93,16.12-.14,2-.26,3.65-.34,4.88,0,.53-.09,1-.12,1.33A1.36,1.36,0,0,1,449.26,285.26Z" style="fill:#455a64"></path><path d="M463.62,327.26a7,7,0,0,1-1.37.42,13,13,0,0,1-3.91.2,14.35,14.35,0,0,1-5.51-1.85,19.46,19.46,0,0,1-5.37-4.67A38.82,38.82,0,0,1,441.58,310c-.54-1.56-.94-2.83-1.2-3.71a7.74,7.74,0,0,1-.35-1.38,6.93,6.93,0,0,1,.55,1.32l1.34,3.64A41.85,41.85,0,0,0,447.87,321a19.78,19.78,0,0,0,5.2,4.58,14.58,14.58,0,0,0,5.31,1.89A18.09,18.09,0,0,0,463.62,327.26Z" style="fill:#455a64"></path><path d="M371.74,301.44s.16-.21.53-.48a6.84,6.84,0,0,1,8,0,24.47,24.47,0,0,1,4.12,4.9,13.19,13.19,0,0,1,1.44,2.21,13.61,13.61,0,0,1-1.73-2,30.43,30.43,0,0,0-4.16-4.71,4.73,4.73,0,0,0-1.5-.83,7.3,7.3,0,0,0-1.59-.37,6.65,6.65,0,0,0-2.74.23A21.15,21.15,0,0,0,371.74,301.44Z" style="fill:#455a64"></path><path d="M382.37,303.71a20.38,20.38,0,0,0-3.47-4.17,10.63,10.63,0,0,0-3.25-1.94,3.13,3.13,0,0,0-1.53,0s.09-.15.37-.27a2.2,2.2,0,0,1,1.24-.07,8.62,8.62,0,0,1,3.5,1.89,11,11,0,0,1,2.54,3.05A3.52,3.52,0,0,1,382.37,303.71Z" style="fill:#455a64"></path><path d="M400.85,316.62a4.07,4.07,0,0,1-.6,1.09,13.22,13.22,0,0,1-2.28,2.55,19,19,0,0,1-10.28,4.28,46,46,0,0,1-6.18.28,20.7,20.7,0,0,1-5-.74,13.47,13.47,0,0,1-3.14-1.34,5.21,5.21,0,0,1-1-.72,23.6,23.6,0,0,0,4.26,1.7,21.39,21.39,0,0,0,4.92.62,50.74,50.74,0,0,0,6.1-.31,19.5,19.5,0,0,0,10.1-4.06A20.51,20.51,0,0,0,400.85,316.62Z" style="fill:#455a64"></path></g><g id="freepik--Gifts--inject-35"><path d="M85.78,375.09a7.38,7.38,0,0,1,.67-4.63A5.59,5.59,0,0,1,90,367.57a4.52,4.52,0,0,1,4.35,1.3A5.37,5.37,0,0,1,95.6,372a15.78,15.78,0,0,1-.2,3.43" style="fill:#263238"></path><path d="M90.76,372.18A64.19,64.19,0,0,0,80,357.13a9.18,9.18,0,0,0-4.26-2.91,6.73,6.73,0,0,0-6.22,2.34,19.89,19.89,0,0,0-3.35,6.07c-1,2.48-2,5.46-.49,7.68a7.86,7.86,0,0,0,3.59,2.53,72.58,72.58,0,0,0,19,5.37" style="fill:#263238"></path><path d="M92.53,372.12a57.32,57.32,0,0,1,9.75-13.43,8.22,8.22,0,0,1,3.83-2.59,6,6,0,0,1,5.55,2.13,17.68,17.68,0,0,1,3,5.44c.89,2.23,1.74,4.9.4,6.89a7,7,0,0,1-3.23,2.24,64.94,64.94,0,0,1-17.07,4.73" style="fill:#263238"></path><path d="M95.53,374.37a7.56,7.56,0,0,0-.26-2.77,5.39,5.39,0,0,0-1.67-2.42,4.89,4.89,0,0,0-3.38-1A5,5,0,0,0,87,369.57a6,6,0,0,0-1.47,2.57,16.6,16.6,0,0,0-.42,2.79,1.78,1.78,0,0,1-.13-.76,7.26,7.26,0,0,1,.19-2.12,6,6,0,0,1,1.49-2.81,5.35,5.35,0,0,1,3.55-1.6,5.22,5.22,0,0,1,3.72,1.17,5.44,5.44,0,0,1,1.72,2.68,5.17,5.17,0,0,1,.14,2.14A1.65,1.65,0,0,1,95.53,374.37Z" style="fill:#455a64"></path><path d="M107.39,366.49a31.79,31.79,0,0,1-5.5,3.07,31,31,0,0,1-5.83,2.38,47.51,47.51,0,0,1,5.6-2.85A49.86,49.86,0,0,1,107.39,366.49Z" style="fill:#455a64"></path><path d="M106.76,362.73a47.92,47.92,0,0,1-5.37,4.56,48.44,48.44,0,0,1-5.7,4.16,48.58,48.58,0,0,1,5.37-4.57A49,49,0,0,1,106.76,362.73Z" style="fill:#455a64"></path><path d="M85.35,372.53a2.93,2.93,0,0,1-1.41,0,14.4,14.4,0,0,1-3.26-1,21.12,21.12,0,0,1-4.29-2.09,22.17,22.17,0,0,1,4.48,1.61A26.39,26.39,0,0,0,84,372.14,5.91,5.91,0,0,1,85.35,372.53Z" style="fill:#455a64"></path><path d="M85.85,371.18a37.84,37.84,0,0,1-5.23-3.61,39.31,39.31,0,0,1-4.92-4,39.64,39.64,0,0,1,5.23,3.62A39.8,39.8,0,0,1,85.85,371.18Z" style="fill:#455a64"></path><rect x="58.47" y="375.27" width="64.37" height="56.46" rx="7.73" style="fill:#455a64"></rect><rect x="86.12" y="375.27" width="9.06" height="56.46" style="fill:#263238"></rect><rect x="58.47" y="398.89" width="64.59" height="6.83" style="fill:#263238"></rect><path d="M95.4,375a25.05,25.05,0,0,1-5.05.26,25.05,25.05,0,0,1-5-.26,25.05,25.05,0,0,1,5-.26A25.05,25.05,0,0,1,95.4,375Z" style="fill:#455a64"></path><rect x="86.2" y="400.96" width="53.6" height="30.63" rx="4.13" style="fill:#263238"></rect><path d="M139.89,411c0,.14-12.11.26-27,.26s-27-.12-27-.26,12.11-.26,27.05-.26S139.89,410.88,139.89,411Z" style="fill:#e0e0e0"></path></g><g id="freepik--Drinks--inject-35"><path d="M372.93,431.15a.8.8,0,0,1,0-.27c0-.19,0-.44,0-.75,0-.7,0-1.67,0-2.91,0-2.54,0-6.2-.07-10.76,0-9.17-.07-22-.12-36.74l.26.25H355.88c.51-.53.14-.14.26-.25h0v7.6q0,3.75,0,7.37c0,4.83,0,9.46,0,13.83,0,8.73,0,16.43-.06,22.61l-.17-.17,12.48.1,3.37,0,.88,0h.32a1.45,1.45,0,0,1-.28,0l-.85,0-3.33,0-12.59.09h-.17v-.18c0-6.18,0-13.88-.07-22.61,0-4.37,0-9,0-13.83v-15h0c.11-.12-.27.24.26-.28h17.3v.26c-.05,14.82-.09,27.7-.12,36.91,0,4.54-.05,8.18-.07,10.71q0,1.83,0,2.85c0,.3,0,.54,0,.73A1.66,1.66,0,0,1,372.93,431.15Z" style="fill:#263238"></path><path d="M357.31,379.72H371.2a0,0,0,0,1,0,0v44.9a2.64,2.64,0,0,1-2.64,2.64H360a2.64,2.64,0,0,1-2.64-2.64v-44.9A0,0,0,0,1,357.31,379.72Z" style="fill:#455a64"></path><path d="M359.45,409c-.14,0-.26-5.95-.26-13.29s.12-13.3.26-13.3.27,5.95.27,13.3S359.6,409,359.45,409Z" style="fill:#e0e0e0"></path><path d="M359.45,417.47a14.2,14.2,0,0,1,0-5.41,13.69,13.69,0,0,1,0,5.41Z" style="fill:#e0e0e0"></path><path d="M166,431.43a1.33,1.33,0,0,1,0-.26c0-.2,0-.45,0-.76,0-.69,0-1.66,0-2.9,0-2.55,0-6.21-.07-10.77,0-9.17-.07-22-.11-36.74l.25.25H148.91c.52-.52.15-.14.26-.25h0v7.6q0,3.75,0,7.37c0,4.83,0,9.46,0,13.83,0,8.73-.05,16.43-.07,22.61l-.17-.17,12.49.1,3.37,0,.88,0H166a.84.84,0,0,1-.28,0l-.85,0-3.33,0-12.59.1h-.17v-.18c0-6.18,0-13.88-.07-22.61,0-4.37,0-9,0-13.83q0-3.62,0-7.37V380h0c.12-.12-.26.25.26-.27h17.3V380c-.05,14.82-.09,27.7-.12,36.91,0,4.54-.05,8.18-.07,10.71q0,1.83,0,2.85c0,.3,0,.54,0,.73A1.66,1.66,0,0,1,166,431.43Z" style="fill:#263238"></path><path d="M150.35,380h13.89a0,0,0,0,1,0,0v44.9a2.64,2.64,0,0,1-2.64,2.64H153a2.64,2.64,0,0,1-2.64-2.64V380A0,0,0,0,1,150.35,380Z" style="fill:#40B4FF"></path><path d="M152.49,409.23c-.15,0-.26-6-.26-13.29s.11-13.29.26-13.29.26,6,.26,13.29S152.63,409.23,152.49,409.23Z" style="fill:#e0e0e0"></path><path d="M152.49,417.75a14.2,14.2,0,0,1,0-5.41,14.2,14.2,0,0,1,0,5.41Z" style="fill:#e0e0e0"></path></g><g id="freepik--Cake--inject-35"><path d="M222.48,380.41H331.63a7.82,7.82,0,0,1,7.82,7.82v43.36a0,0,0,0,1,0,0H214.66a0,0,0,0,1,0,0V388.23A7.82,7.82,0,0,1,222.48,380.41Z" style="fill:#40B4FF"></path><g style="opacity:0.4"><rect x="214.66" y="409.09" width="124.79" height="9.61"></rect></g><g style="opacity:0.30000000000000004"><path d="M214.66,392.77c.29,2.5,4.74,2.67,6.56,1.32a8.85,8.85,0,0,1,3.32-1.58c5.05-1.12,5.81,3.86,7.71,7.13a10,10,0,0,0,16.47,1.21c1-1.23,1.66-2.68,2.71-3.84a4.29,4.29,0,0,1,4.16-1.6c1.61.47,2.57,2.26,4.18,2.72s3.49-.72,4.56-2.16c1.37-1.86,2.12-4.2,4.31-5.4a3.12,3.12,0,0,1,3.18,0c1.62,1,1.37,3.16,1.43,5s1,3.72,2.66,3.52c1.4-.18,2-1.89,2.1-3.31.11-1.62.08-3.54,1.74-4.3a2.87,2.87,0,0,1,3.06.58c1.89,1.71,1.89,4.21,2.59,6.43a10.92,10.92,0,0,0,9.52,7.39,10.74,10.74,0,0,0,11-8.52,6.49,6.49,0,0,1,1.39-3.18c4.65-5.39,8.43,2.24,12.75,1,3-.83,3.93-5.48,7.68-5a4.4,4.4,0,0,1,2.37,1.17c2.25,2.06,2.65,5.12,4.23,7.54,1.17,1.79,3.4,3.22,5.4,2.47l-.19-13.58a7.54,7.54,0,0,0-7.54-7.43H222.2a7.54,7.54,0,0,0-7.54,7.54Z" style="fill:#fff"></path></g><path d="M238.37,342.65H316.8a7,7,0,0,1,7,7v30.91a0,0,0,0,1,0,0H231.4a0,0,0,0,1,0,0V349.63A7,7,0,0,1,238.37,342.65Z" style="fill:#40B4FF"></path><g style="opacity:0.4"><rect x="231.4" y="363.14" width="92.37" height="7.11"></rect></g><g style="opacity:0.30000000000000004"><path d="M231.4,351.8c.19,1.66,2.84,1.93,4.37,1.26,2.15-.95,4.27-2.91,6.75-.13a6,6,0,0,1,1.24,2.4,7.39,7.39,0,0,0,12.85,2.45c.73-.91,1.23-2,2-2.84a3.19,3.19,0,0,1,3.08-1.19c1.19.35,1.9,1.68,3.09,2s2.58-.54,3.37-1.6c1-1.36,1.56-3.07,3.14-4a2.33,2.33,0,0,1,2.31-.08c1.31.75,1.11,2.36,1.16,3.73s.75,2.75,2,2.6c1-.13,1.49-1.39,1.56-2.44.09-1.25.06-2.73,1.44-3.25a2.29,2.29,0,0,1,2,.43c1.47,1.27,1.46,3.15,2,4.82a8.08,8.08,0,0,0,7.05,5.47A7.92,7.92,0,0,0,299,355a4.39,4.39,0,0,1,1-2.17c3.46-4,6.26,1.64,9.46.76,2.21-.61,2.89-3.95,5.57-3.69a3.38,3.38,0,0,1,2,1c1.54,1.52,1.85,3.71,3,5.45.87,1.32,2.52,2.38,4,1.82l-.13-8.75a6.89,6.89,0,0,0-6.89-6.8H238.29a6.9,6.9,0,0,0-6.89,6.9Z" style="fill:#fff"></path></g><rect x="251.54" y="322.95" width="4.54" height="20.11" style="fill:#263238"></rect><path d="M256.08,323s-4.54,6-4.54,6.15v3.38l4.54-5.66Z" style="fill:#f5f5f5"></path><path d="M256.08,332s-4.54,6-4.54,6.15v3.38l4.54-5.66Z" style="fill:#f5f5f5"></path><path d="M254,323.11c-.14,0-.26-.79-.27-1.75s.09-1.76.24-1.76.27.78.28,1.75S254.11,323.11,254,323.11Z" style="fill:#263238"></path><path d="M253.66,312.55a11.38,11.38,0,0,0-2.22,4.78,3.4,3.4,0,0,0,.69,2.77,2.56,2.56,0,0,0,3.35.19,2.87,2.87,0,0,0,.72-3.35c-.29-.61-.77-1.1-1.11-1.69a4,4,0,0,1-.53-1.75,1.57,1.57,0,0,0-.21-.91c-.2-.24-.71-.22-.75.09" style="fill:#40B4FF"></path><path d="M253.9,320.64a1,1,0,0,1-.75-.46,2.19,2.19,0,0,1-.31-.83,4.61,4.61,0,0,1,.34-2.74.84.84,0,0,1,.4-.48.63.63,0,0,1,.61.13,1.66,1.66,0,0,1,.38.53,4,4,0,0,1,.55,2.13,1.89,1.89,0,0,1-1.21,1.69" style="fill:#eb996e"></path><path d="M249.62,317.2a4.9,4.9,0,0,1-2.18-.41c-1.17-.37-2.07-.77-2-.91a4.9,4.9,0,0,1,2.18.41C248.76,316.66,249.66,317.06,249.62,317.2Z" style="fill:#263238"></path><path d="M249.38,313.84c-.09.12-.72-.15-1.42-.61s-1.21-.91-1.13-1,.7.15,1.41.61S249.46,313.72,249.38,313.84Z" style="fill:#263238"></path><path d="M252,312c-.11.09-.85-.75-1.65-1.88a6.08,6.08,0,0,1-1.23-2.18c.12-.08.86.76,1.66,1.88A6.06,6.06,0,0,1,252,312Z" style="fill:#263238"></path><path d="M254.06,308.53c.14,0,.29.6.32,1.36s0,1.37-.19,1.37-.29-.6-.33-1.35S253.91,308.54,254.06,308.53Z" style="fill:#263238"></path><path d="M260,309.46c.08.11-.69.86-1.72,1.68a5.85,5.85,0,0,1-2,1.27c-.09-.12.68-.87,1.72-1.68A5.59,5.59,0,0,1,260,309.46Z" style="fill:#263238"></path><path d="M260.53,314.22c.07.12-.41.55-1.16.78s-1.39.17-1.39,0,.56-.31,1.24-.52S260.45,314.09,260.53,314.22Z" style="fill:#263238"></path><path d="M263.89,317.39a7.38,7.38,0,0,1-2.7.59,7.62,7.62,0,0,1-2.77.07,14.66,14.66,0,0,1,5.47-.66Z" style="fill:#263238"></path><rect x="299.1" y="322.54" width="4.54" height="20.11" style="fill:#263238"></rect><path d="M303.64,322.54s-4.54,6-4.54,6.15v3.37l4.54-5.65Z" style="fill:#f5f5f5"></path><path d="M303.64,331.55s-4.54,6-4.54,6.15v3.37l4.54-5.65Z" style="fill:#f5f5f5"></path><path d="M301.52,322.69c-.14,0-.27-.78-.28-1.75s.1-1.75.24-1.75.27.78.28,1.75S301.66,322.69,301.52,322.69Z" style="fill:#263238"></path><path d="M301.22,312.14a11.11,11.11,0,0,0-2.22,4.77,3.35,3.35,0,0,0,.69,2.78,2.55,2.55,0,0,0,3.35.18,2.84,2.84,0,0,0,.71-3.34c-.28-.61-.77-1.11-1.11-1.69a4.15,4.15,0,0,1-.53-1.75,1.56,1.56,0,0,0-.21-.91c-.2-.25-.7-.23-.74.09" style="fill:#40B4FF"></path><path d="M301.45,320.22a1,1,0,0,1-.74-.45,2,2,0,0,1-.31-.84,4.68,4.68,0,0,1,.33-2.74.89.89,0,0,1,.4-.47.62.62,0,0,1,.62.13,1.56,1.56,0,0,1,.38.53,4,4,0,0,1,.55,2.12,1.9,1.9,0,0,1-1.22,1.7" style="fill:#eb996e"></path><path d="M297.18,316.79a5.11,5.11,0,0,1-2.19-.41c-1.16-.37-2.07-.78-2-.91a4.74,4.74,0,0,1,2.18.41C296.31,316.24,297.22,316.65,297.18,316.79Z" style="fill:#263238"></path><path d="M296.93,313.42c-.08.12-.71-.15-1.41-.6s-1.21-.92-1.14-1,.71.15,1.42.6S297,313.31,296.93,313.42Z" style="fill:#263238"></path><path d="M299.6,311.59c-.12.08-.86-.76-1.65-1.88a6.17,6.17,0,0,1-1.23-2.18c.12-.08.86.76,1.65,1.88A6.29,6.29,0,0,1,299.6,311.59Z" style="fill:#263238"></path><path d="M301.61,308.12c.15,0,.29.6.33,1.35s-.05,1.37-.2,1.38-.29-.6-.32-1.35S301.47,308.12,301.61,308.12Z" style="fill:#263238"></path><path d="M307.57,309.05c.09.11-.68.86-1.72,1.67s-2,1.39-2,1.27.68-.86,1.72-1.68S307.48,308.93,307.57,309.05Z" style="fill:#263238"></path><path d="M308.09,313.81c.07.12-.42.55-1.16.78s-1.39.16-1.4,0,.56-.3,1.24-.52S308,313.68,308.09,313.81Z" style="fill:#263238"></path><path d="M311.45,317a7.71,7.71,0,0,1-2.7.59,7.62,7.62,0,0,1-2.77.07,7.36,7.36,0,0,1,2.7-.59A7.65,7.65,0,0,1,311.45,317Z" style="fill:#263238"></path><rect x="275.69" y="322.75" width="4.54" height="20.11" style="fill:#263238"></rect><path d="M280.23,322.75s-4.54,6-4.54,6.15v3.37l4.54-5.65Z" style="fill:#f5f5f5"></path><path d="M280.23,331.76s-4.54,6-4.54,6.15v3.37l4.54-5.65Z" style="fill:#f5f5f5"></path><path d="M278.11,322.9c-.14,0-.26-.78-.27-1.75s.09-1.75.24-1.75.27.78.28,1.75S278.26,322.9,278.11,322.9Z" style="fill:#263238"></path><path d="M277.81,312.35a11.34,11.34,0,0,0-2.22,4.77,3.42,3.42,0,0,0,.69,2.78,2.55,2.55,0,0,0,3.35.18,2.85,2.85,0,0,0,.72-3.34c-.29-.61-.77-1.11-1.11-1.69a4,4,0,0,1-.53-1.75,1.56,1.56,0,0,0-.21-.91c-.2-.25-.71-.22-.75.09" style="fill:#40B4FF"></path><path d="M278.05,320.43a1,1,0,0,1-.75-.45,2.19,2.19,0,0,1-.31-.83,4.64,4.64,0,0,1,.34-2.75.85.85,0,0,1,.4-.47.6.6,0,0,1,.61.13,1.56,1.56,0,0,1,.38.53,4,4,0,0,1,.55,2.12,1.89,1.89,0,0,1-1.21,1.7" style="fill:#eb996e"></path><path d="M273.77,317a9.45,9.45,0,0,1-4.21-1.32,4.74,4.74,0,0,1,2.18.41C272.91,316.45,273.81,316.86,273.77,317Z" style="fill:#263238"></path><path d="M273.53,313.63c-.09.12-.72-.15-1.42-.6s-1.21-.92-1.13-1,.7.15,1.41.6S273.61,313.52,273.53,313.63Z" style="fill:#263238"></path><path d="M276.19,311.8c-.11.08-.85-.76-1.65-1.88a6.08,6.08,0,0,1-1.23-2.18c.12-.08.86.76,1.66,1.88A6,6,0,0,1,276.19,311.8Z" style="fill:#263238"></path><path d="M278.21,308.33c.14,0,.29.6.32,1.35s0,1.37-.19,1.38-.29-.6-.33-1.35S278.06,308.34,278.21,308.33Z" style="fill:#263238"></path><path d="M284.17,309.26c.08.11-.69.86-1.72,1.67s-1.95,1.39-2,1.27.68-.86,1.72-1.68S284.08,309.14,284.17,309.26Z" style="fill:#263238"></path><path d="M284.68,314c.07.12-.41.55-1.16.78s-1.39.16-1.39,0,.56-.3,1.24-.52S284.6,313.89,284.68,314Z" style="fill:#263238"></path><path d="M288,317.19a14.6,14.6,0,0,1-5.47.66,7.38,7.38,0,0,1,2.71-.59A7.6,7.6,0,0,1,288,317.19Z" style="fill:#263238"></path></g></svg>